<svg width="90" height="119" viewBox="0 0 90 119" fill="none" xmlns="http://www.w3.org/2000/svg">
<path d="M54.0372 102.584C54.1403 102.503 54.2263 102.402 54.2901 102.287C54.4305 102.035 54.2003 101.682 53.8897 101.664C53.4262 101.639 53.0376 101.866 52.8865 102.217C52.6015 102.856 52.0701 103.187 51.518 103.44C51.0765 103.642 50.7236 103.93 50.5457 104.322C50.2322 105.016 49.7425 105.407 49.041 105.625C48.3395 105.843 48.0765 106.398 48.1139 107.24C48.3615 107.24 48.5727 107.288 48.7476 107.24C49.3861 107.068 49.8359 106.633 50.2643 106.173C50.4202 106.005 50.5368 105.779 50.7284 105.669C52.066 104.898 52.8686 103.536 54.0372 102.584Z" fill="#5CFFE4"/>
<path d="M61.5301 96.8993L63.9696 95.2607L63.9398 95.2185C64.1826 95.0483 64.4319 94.8882 64.6675 94.7079C64.8841 94.5408 65.0608 94.323 64.8996 93.994C64.7145 93.6138 64.4164 93.7226 64.1689 93.7929C63.9214 93.8631 63.5799 93.9119 63.4549 94.11C63.0872 94.7002 62.4101 94.7359 61.8788 95.0328C61.4075 95.294 61.0041 95.6724 60.5953 96.0282C60.3264 96.2621 60.4014 96.631 60.6019 96.9064C60.8024 97.1819 61.11 97.1403 61.3617 97.004C61.4194 96.9695 61.4754 96.9356 61.5301 96.8993Z" fill="#5CFFE4"/>
<path d="M65.0798 93.5401C65.751 93.8852 66.0746 93.5948 66.3757 93.3729C66.7142 93.1248 66.9933 92.8017 67.2759 92.4721C67.3354 92.4054 67.2789 92.168 67.1985 92.074C67.1182 91.98 66.907 91.8997 66.8207 91.9372C66.0745 92.257 65.4601 92.8227 65.0798 93.5401Z" fill="#5CFFE4"/>
<path d="M67.5068 91.8454C68.1393 91.9507 68.6135 91.8216 68.9747 91.5395C69.0894 91.4104 69.1873 91.2672 69.2662 91.1135C69.3483 90.9588 69.3632 90.6518 69.2662 90.5227C69.1692 90.3935 68.8777 90.3251 68.717 90.3602C68.5094 90.4002 68.3162 90.4951 68.1577 90.6351C67.8025 90.8624 67.6223 91.273 67.5068 91.8454Z" fill="#5CFFE4"/>
<path d="M57.0646 98.6635C56.7951 98.9431 56.7761 99.318 56.9956 99.7119C57.9553 99.7761 57.9636 99.7714 58.2271 98.7087C57.7637 98.3392 57.3728 98.3434 57.0646 98.6635Z" fill="#5CFFE4"/>
<path d="M59.7493 98.1559C59.7761 98.1368 59.8017 98.1166 59.9492 98.0095C59.9837 97.9315 60.1027 97.7376 60.1509 97.5168C60.1741 97.4151 60.0914 97.2318 60.001 97.1396C59.7428 96.8725 59.2507 96.8897 58.9651 97.1491C58.6795 97.4085 58.6015 97.928 58.805 98.1791C58.9925 98.4129 59.3655 98.4028 59.7493 98.1559Z" fill="#5CFFE4"/>
<path d="M56.4928 100.712C56.5469 100.565 56.6267 100.332 56.5577 100.24C56.4248 100.076 56.2398 99.9619 56.0335 99.9173C55.6372 99.8495 55.1034 100.461 55.2189 100.85C55.2581 100.985 55.4676 101.182 55.5884 101.191C55.8181 101.208 56.0388 101.11 56.2357 101.067C56.3423 100.925 56.4482 100.835 56.4928 100.712Z" fill="#5CFFE4"/>
<path d="M59.0983 80.8515C59.1361 80.8212 59.1631 80.7794 59.1751 80.7325C59.1793 80.7172 59.1811 80.7013 59.1805 80.6855C59.168 80.5165 58.9865 80.269 58.764 80.1089C58.6846 80.0508 58.6015 79.998 58.5152 79.9507C58.1398 79.7317 57.8697 79.7073 57.8703 80.053C57.8729 80.1521 57.8525 80.2505 57.8108 80.3404C57.7626 80.4219 57.7602 80.4421 57.5876 80.5671C57.3128 80.7658 57.0045 80.9175 56.707 81.0948C56.4583 81.2418 56.2043 81.3816 55.9686 81.5494L54.0391 82.9114L51.9702 84.3435C51.3276 84.7868 50.6386 85.1765 50.0442 85.6733C49.7289 85.9381 49.4177 86.1999 49.0922 86.4409C48.7589 86.7152 48.4021 86.9597 48.026 87.1715C47.6529 87.3774 47.3405 87.7243 47.0579 88.0581C46.8116 88.3514 46.4772 88.6531 46.7087 89.2273C47.3507 89.2059 47.7797 88.8655 48.1866 88.5079C48.6371 88.1128 49.091 87.7237 49.5551 87.3453C50.0151 86.9919 50.4821 86.6813 50.9647 86.3707C52.9877 85.0831 55.119 83.7099 56.9046 82.4663C57.408 82.1212 57.8994 81.7589 58.3867 81.3953L59.0983 80.8515Z" fill="#5CFFE4"/>
<path d="M59.7748 80.2445C59.8275 80.1732 59.8594 80.0888 59.867 80.0005L59.8742 79.9261C59.8807 79.8946 59.9039 79.8428 59.917 79.8024C59.9438 79.7143 59.9718 79.6239 60.0003 79.5323C59.8456 79.3103 59.6915 79.1913 59.5357 79.1562C59.457 79.1383 59.375 79.141 59.2977 79.164C59.2233 79.1812 59.1222 79.2455 59.093 79.2443C58.8146 79.3466 58.573 79.4406 59.1323 80.2837C59.4791 80.4128 59.6743 80.3724 59.7748 80.2445Z" fill="#5CFFE4"/>
<path d="M61.5741 78.0363C61.7026 77.8914 61.8187 77.736 61.921 77.5716C62.0486 77.3641 62.1522 77.1427 62.2298 76.9117C61.7229 76.7106 61.2861 76.6351 60.7292 77.1277C60.3722 77.4109 60.33 77.7918 60.3829 78.2225C60.4174 78.5058 60.734 78.6884 60.9506 78.5319C61.1671 78.3755 61.3879 78.2356 61.5741 78.0363Z" fill="#5CFFE4"/>
<path d="M41.0014 93.5372C40.7634 93.6425 40.5545 93.8115 40.2362 94.0203C40.3641 94.2488 40.429 94.5005 40.5819 94.6076C40.8312 94.7819 41.0365 94.6076 41.2031 94.4291C41.2941 94.3327 41.4411 94.2506 41.4613 94.1358C41.4896 93.9693 41.4593 93.7981 41.3756 93.6514C41.3215 93.5664 41.0924 93.4968 41.0014 93.5372Z" fill="#5CFFE4"/>
<path d="M64.993 111.636C64.9388 111.66 64.8609 111.67 64.8383 111.719C64.523 112.389 63.7929 112.571 63.3169 113.052C63.0789 113.29 62.882 113.523 62.9897 113.983C63.7078 114.059 63.6995 114.102 64.1356 113.76C64.6455 113.367 65.1471 112.96 65.6374 112.547C65.9384 112.295 65.9848 112.033 65.8075 111.788C65.6302 111.543 65.3321 111.489 64.993 111.636Z" fill="#5CFFE4"/>
<path d="M69.6001 108.855C69.3062 108.791 68.9878 108.628 68.7909 108.704C68.5106 108.812 68.2816 109.061 68.1013 109.313C67.921 109.564 68.1888 110.101 68.4625 110.062C68.8072 110.003 69.1407 109.891 69.4508 109.73C69.7001 109.606 69.7227 109.323 69.6001 108.855Z" fill="#5CFFE4"/>
<path d="M70.6146 107.087C70.288 107.241 70.0476 107.792 70.1481 108.192C70.216 108.463 70.4629 108.594 70.6354 108.536C71.0888 108.382 71.532 108.182 71.5588 107.489C71.253 107.152 70.9775 106.915 70.6146 107.087Z" fill="#5CFFE4"/>
<path d="M71.8789 106.079C71.5945 106.343 71.4488 106.702 71.7903 107.162C72.8077 107.245 72.9053 107.162 73.0071 106.21C72.6328 105.903 72.2288 105.75 71.8789 106.079Z" fill="#5CFFE4"/>
<path d="M67.7336 110.361C67.5385 110.224 67.238 110.032 67.1243 110.093C66.8036 110.267 66.4859 110.518 66.7495 111.187C67.2291 111.267 67.5474 111.169 67.7086 110.804C67.7568 110.684 67.783 110.399 67.7336 110.361Z" fill="#5CFFE4"/>
<path d="M63.2931 69.3271L62.9361 68.9106C62.2953 68.9767 61.8455 69.3004 61.4135 69.6657L58.855 71.8368L55.9169 74.9469L55.3731 75.5205C55.3292 75.5713 55.2819 75.619 55.2315 75.6633L55.172 75.7228L54.934 75.9697C54.8417 76.0346 54.7555 76.1024 54.6585 76.1625L54.549 76.2422L54.1164 76.576C53.8048 76.8197 53.5179 77.0933 53.2596 77.393C52.8619 77.8842 52.3623 78.2833 51.7953 78.5627C51.0489 78.931 50.4637 79.5605 50.1508 80.3317C51.2997 80.2668 52.1404 79.6938 52.6872 79.012C52.8289 78.8418 52.9449 78.6026 53.1365 78.533C53.7565 78.3087 54.2848 77.954 54.787 77.5643L55.1612 77.2668L55.2511 77.1924L55.2737 77.1686L55.3189 77.1205C55.3802 77.0583 55.4494 77.0044 55.5248 76.9604L55.7206 76.8414C55.8044 76.764 55.8883 76.6867 55.9657 76.6034L56.0847 76.4802L56.1686 76.3969L56.3899 76.1589L58.3153 74.1103L59.688 72.6984L60.8453 71.7506C61.2106 71.4442 61.6783 71.0538 61.8199 70.9176C62.3405 70.4428 62.9569 70.0316 63.2931 69.3271Z" fill="#5CFFE4"/>
<path d="M49.9186 80.7252C49.0732 80.5122 48.7882 80.7056 48.5127 81.5891C49.2094 81.6974 49.5271 81.2655 49.9186 80.7252Z" fill="#5CFFE4"/>
<path d="M47.8986 76.6277C48.5323 76.1946 49.2409 75.7239 49.7693 75.3425C49.9527 75.2173 50.1063 75.0531 50.2191 74.8618C50.2833 74.7428 50.2833 74.4976 50.203 74.3858C50.1227 74.2739 49.874 74.1674 49.7591 74.2019C49.4592 74.2923 49.1754 74.4297 48.9184 74.6089L47.9664 75.3062C47.638 75.5508 47.3119 75.7965 46.971 76.0298C45.9446 76.739 44.87 77.3858 43.8681 78.1289L43.0856 78.712L42.2717 79.3885L40.645 80.7624L37.4076 83.5285C36.8661 84.0194 36.3282 84.4918 35.8011 84.9881C35.4441 85.3242 35.1359 85.7021 35.2656 86.5C35.766 86.2257 36.1747 86.0507 36.5288 85.799C36.9167 85.523 37.2874 85.2272 37.6474 84.919L38.7844 83.9224C39.5805 83.2173 40.3599 82.4909 41.1697 81.7995L43.6051 79.7366C44.3952 79.1214 45.1729 78.5549 45.9672 77.9742C46.6039 77.5119 47.25 77.0674 47.8986 76.6277Z" fill="#5CFFE4"/>
<path d="M34.2315 86.5255C33.4895 87.0533 32.6398 87.5406 32.519 88.8199C33.6382 88.6087 34.2219 87.856 34.8068 87.1574C34.8741 87.0771 34.8068 86.7808 34.711 86.676C34.6152 86.5713 34.3142 86.4636 34.2315 86.5255Z" fill="#5CFFE4"/>
<path d="M30.483 89.6266C29.9891 90.0175 29.4822 90.3923 29.0109 90.8076C28.886 90.9171 28.8711 91.1503 28.7729 91.4139C29.1216 91.4448 29.4161 91.559 29.5887 91.4686C30.0906 91.2095 30.5632 90.8971 30.9982 90.5369C31.2059 90.3631 31.2809 90.0347 31.4243 89.7604C30.6972 89.4653 30.6942 89.4594 30.483 89.6266Z" fill="#5CFFE4"/>
<path d="M70.2213 113.798C70.0547 113.847 69.9125 113.968 69.7614 114.077C69.4883 114.274 69.352 114.527 69.5335 115.037C70.7175 114.963 70.9103 114.759 70.8621 113.957C70.6086 113.773 70.3974 113.749 70.2213 113.798Z" fill="#5CFFE4"/>
<path d="M71.917 112.517C71.7302 112.67 71.5936 112.876 71.5249 113.107C71.4487 113.381 71.7629 113.702 72.0294 113.65C72.4781 113.556 72.8386 113.352 72.8434 112.792C72.1568 112.384 72.1258 112.348 71.917 112.517Z" fill="#5CFFE4"/>
<path d="M68.2161 115.452C67.8372 115.562 67.5992 115.813 67.7574 116.366C68.2489 116.571 68.4791 116.321 68.6838 116.068C68.7433 115.99 68.7266 115.733 68.6505 115.642C68.5553 115.526 68.325 115.42 68.2161 115.452Z" fill="#5CFFE4"/>
<path d="M60.6197 102.548C60.3222 102.736 59.9652 102.905 59.6779 103.158C58.7973 103.922 58.1041 104.883 56.9879 105.385C56.472 105.607 56.1245 106.124 56.2031 106.951C57.0438 106.81 57.6483 106.469 58.232 105.905C58.73 105.421 59.2798 104.992 59.7986 104.529C60.1497 104.216 60.518 103.918 60.8214 103.556C61.0338 103.303 61.113 102.952 60.6197 102.548Z" fill="#5CFFE4"/>
<path d="M54.5443 107.572C53.7113 108.002 52.9604 108.542 52.5552 109.525C53.2008 109.733 53.5464 109.4 53.8981 109.152C54.3824 108.81 54.9863 108.566 55.1357 107.773C54.9078 107.691 54.6579 107.516 54.5443 107.572Z" fill="#5CFFE4"/>
<path d="M49.6961 111.576C49.4415 111.814 49.191 112.101 49.404 112.601C50.2572 112.748 50.629 112.072 51.1764 111.709C51.4323 111.54 51.5751 111.282 51.3638 110.785C50.6249 110.779 50.1412 111.161 49.6961 111.576Z" fill="#5CFFE4"/>
<path d="M74.9342 92.1315C75.093 91.9572 75.2144 91.693 74.9443 91.4841C74.7592 91.3407 74.4552 91.2307 74.2535 91.2652C73.4997 91.4002 73.3057 91.9625 73.6175 92.9109C74.2892 92.9324 74.5837 92.5171 74.9342 92.1315Z" fill="#5CFFE4"/>
<path d="M71.657 95.3064C71.8486 95.2618 72.0271 95.1552 72.1586 95.0999L72.1746 95.0844C72.2649 94.984 72.3484 94.8777 72.4245 94.7661C72.5757 94.5073 72.7 94.1818 72.4162 94.0247C72.23 93.9206 71.8736 93.9325 71.7087 94.0598C71.6188 94.131 71.5414 94.2166 71.4797 94.3133C71.354 94.4511 71.2447 94.6031 71.1542 94.7661C70.9834 95.0577 71.2893 95.3897 71.657 95.3064Z" fill="#5CFFE4"/>
<path d="M62.5266 101.723C62.0417 101.288 61.7591 101.518 61.4831 101.744C61.2379 101.945 61.2843 102.198 61.4831 102.471C62.2559 102.449 62.2559 102.45 62.5266 101.723Z" fill="#5CFFE4"/>
<path d="M66.897 99.0014C67.0934 98.8734 67.2047 98.6182 67.373 98.3867C66.897 97.9761 66.6102 98.016 66.3663 98.2314C66.1669 98.4099 66.1318 98.6771 66.3579 98.8859C66.4865 99.0037 66.7852 99.0763 66.897 99.0014Z" fill="#5CFFE4"/>
<path d="M64.9728 100.372C65.0639 100.278 65.127 100.007 65.0669 99.9361C64.9425 99.7933 64.6848 99.6244 64.5563 99.6595C64.2142 99.7511 64.0166 100.003 64.1993 100.433C64.5313 100.641 64.7872 100.563 64.9728 100.372Z" fill="#5CFFE4"/>
<path d="M68.7962 96.2875C68.7534 96.3785 68.6933 96.4898 68.7153 96.5814C68.7563 96.7439 68.823 96.964 68.939 97.0366C69.055 97.1092 69.2793 97.0735 69.3858 96.992C69.7928 96.682 69.6655 96.4071 68.9556 96.0513C68.8955 96.125 68.8421 96.2041 68.7962 96.2875Z" fill="#5CFFE4"/>
<path d="M62.2417 107.444C61.674 107.623 61.2998 107.995 61.3444 108.803C62.1078 108.815 62.5386 108.471 62.8111 107.897C62.6849 107.571 62.5005 107.365 62.2417 107.444Z" fill="#5CFFE4"/>
<path d="M64.11 106.588C64.8781 106.543 65.0227 106.466 65.1518 105.674C64.6163 105.328 64.3747 105.657 64.1278 105.862C63.9576 106.018 63.8625 106.287 64.11 106.588Z" fill="#5CFFE4"/>
<path d="M64.0125 81.7126C64.4831 81.6174 64.8407 81.4532 65.0989 81.2093C65.444 80.8594 65.6984 80.4304 65.8397 79.9598C64.9335 79.6242 64.2558 80.287 64.0125 81.7126Z" fill="#5CFFE4"/>
<path d="M61.097 84.3871C60.8774 84.2681 60.7114 84.2253 60.5823 84.236C60.4002 84.289 60.2389 84.3971 60.1206 84.5453C59.9545 84.7393 59.823 84.9695 60.0497 85.2771C60.8959 85.2491 61.194 85.0207 61.097 84.3871Z" fill="#5CFFE4"/>
<path d="M42.8346 98.5752L42.0088 99.3011C42.7609 99.7694 42.8787 99.7718 43.1351 99.4154C43.3594 99.1036 43.3059 98.8322 42.8346 98.5752Z" fill="#5CFFE4"/>
<path d="M45.4454 97.2232C45.5097 97.1179 45.4544 96.8775 45.3758 96.7377C45.3276 96.6514 45.1093 96.5758 45.0093 96.605C44.6375 96.7139 44.4435 96.9566 44.6803 97.4737C45.0605 97.5963 45.302 97.4612 45.4454 97.2232Z" fill="#5CFFE4"/>
<path d="M46.7152 95.3786C47.0288 95.6856 47.3197 95.7529 47.572 95.5184C47.8141 95.3066 47.7784 95.0305 47.4661 94.6699C47.0448 94.7794 46.7973 94.9847 46.7152 95.3786Z" fill="#5CFFE4"/>
<path d="M49.119 99.7417C48.8186 99.7605 48.5255 99.842 48.2586 99.9809C47.9916 100.12 47.7567 100.313 47.569 100.549C47.005 101.232 46.316 101.746 45.6258 102.274C45.2265 102.582 44.8814 102.928 44.9118 103.672C45.1498 103.663 45.2997 103.69 45.4169 103.648C47.0139 103.053 48.0242 101.713 49.2249 100.622C49.4498 100.42 49.5117 100.067 49.119 99.7417Z" fill="#5CFFE4"/>
<path d="M62.854 88.723C62.8147 88.8295 62.5904 88.8504 62.4435 88.8849C61.4992 89.1133 61.1892 89.5745 61.3516 90.6341C61.57 90.6246 61.8467 90.6978 62.0002 90.5919C62.4405 90.2944 62.8534 89.9541 63.2693 89.6197C63.6745 89.2924 64.1362 88.9277 64.4926 88.7105C64.8181 88.5094 64.7378 88.3643 64.2576 87.8538C63.9238 87.8222 63.6507 87.8538 63.4401 87.9728C63.1938 88.1197 62.9843 88.3708 62.854 88.723Z" fill="#5CFFE4"/>
<path d="M58.257 92.9539C57.8584 92.6064 57.4401 92.5855 57.0819 92.8349C56.5244 93.2187 55.8003 93.4828 55.7866 94.4914C56.7689 94.6818 57.2848 94.0654 57.9333 93.7601C58.21 93.6274 58.3695 93.3442 58.257 92.9539Z" fill="#5CFFE4"/>
<path d="M54.4514 95.2269C53.66 95.2668 53.0567 95.9034 52.8556 96.9524C53.7981 96.9524 54.3306 96.4395 54.8697 95.9534C54.9559 95.8761 54.9565 95.5916 54.8851 95.4619C54.8137 95.3322 54.5906 95.2197 54.4514 95.2269Z" fill="#5CFFE4"/>
<path d="M50.4108 98.1101C50.2739 98.3874 50.1359 98.6611 50.0002 98.9711C50.4834 99.3495 50.8047 99.2275 51.0748 99.0127C51.3873 98.7631 51.6598 98.4671 51.8828 98.1351C52.0018 97.9566 51.8465 97.6912 51.5787 97.6478C51.0897 97.568 50.6446 97.6264 50.4108 98.1101Z" fill="#5CFFE4"/>
<path d="M60.6608 91.116C60.4722 90.8328 60.1967 90.7334 59.9087 90.8262C59.3387 91.0083 59.0388 91.4087 59.0715 92.1578C59.7647 92.4291 60.1425 92.0876 60.515 91.7615C60.6947 91.6039 60.8482 91.3986 60.6608 91.116Z" fill="#5CFFE4"/>
<path d="M66.7494 85.2345C66.7018 85.4 66.7494 85.6981 66.8684 85.8093C66.9874 85.9206 67.3004 85.9503 67.4468 85.8789C67.8234 85.7004 68.056 85.3803 67.9513 84.8109C67.2349 84.6556 66.8833 84.7669 66.7494 85.2345Z" fill="#5CFFE4"/>
<path d="M68.923 84.3614C69.3276 83.9074 69.3657 83.6367 69.1539 83.4183C68.9634 83.2184 68.5178 83.2398 68.3321 83.4558C68.2316 83.5748 68.1762 83.792 68.178 83.9913C68.1899 84.1764 68.2583 84.3394 68.369 84.384C68.557 84.4673 68.8165 84.3709 68.923 84.3614Z" fill="#5CFFE4"/>
<path d="M65.5827 87.3412C66.161 87.3358 66.1723 87.3251 66.1777 86.645C65.4048 86.714 65.4173 86.6986 65.5827 87.3412Z" fill="#5CFFE4"/>
<path d="M75.7571 51.3484L75.0586 52.0624L74.3898 52.7229C74.1518 52.9609 73.9031 53.1941 73.6502 53.4214L72.5566 54.4204C72.362 54.5989 72.1996 54.8369 71.9616 54.9416C71.7191 55.0549 71.4977 55.2088 71.3071 55.3968C71.2637 55.4396 71.2089 55.4956 71.178 55.5325L71.1911 55.5521L71.2387 55.6169C71.2535 55.6358 71.267 55.6557 71.2791 55.6764C71.2881 55.6961 71.2869 55.7038 71.2791 55.7038H71.2744L71.2202 55.7449C71.1393 55.8085 71.059 55.874 70.9822 55.9424C70.2218 56.6159 69.4543 57.2752 68.6415 57.8827C68.3541 58.0975 68.1768 58.4658 67.943 58.7585C67.7727 58.9562 67.5886 59.1415 67.392 59.3131C66.7829 59.803 66.1414 60.2512 65.4719 60.6548L64.4646 61.2546L64.3373 61.3277L64.0993 61.4789L63.6161 61.7859L62.5433 62.4749L62.3274 62.6165L60.7875 63.8505L60.4031 64.1629L60.1806 64.3366L59.7825 64.6454C59.2534 65.0584 58.7324 65.4806 58.2195 65.9122L57.1366 66.8398L55.4617 68.3011L53.5577 70.3878L52.6057 71.4588L52.0398 72.1133L51.9012 72.2787C51.8664 72.3163 51.834 72.3561 51.8042 72.3977L51.8078 72.4233C51.8241 72.4552 51.8285 72.4919 51.8203 72.5268C51.8072 72.5405 51.7881 72.5476 51.7381 72.5143C51.7221 72.5042 51.7173 72.5089 51.7155 72.5143V72.522C51.7155 72.5262 51.728 72.5173 51.6786 72.5548L51.471 72.7106C51.0836 72.9855 50.9319 73.3883 50.9623 73.9601C51.5573 74.1297 51.8702 73.7656 52.2052 73.5198L52.3962 73.3764C52.4095 73.3669 52.4239 73.3589 52.4391 73.3526C52.4662 73.3344 52.4922 73.3145 52.517 73.2931L52.5765 73.2211C52.5845 73.2074 52.595 73.1953 52.6074 73.1854C52.6354 73.1569 52.5753 73.2319 52.7699 73.0236C53.1786 72.5928 53.6624 72.2317 54.0604 71.7943L56.3274 69.2025L56.8421 68.7468L58.877 67.0046C59.3085 66.6432 59.7476 66.292 60.1943 65.9509C60.5382 65.6897 60.875 65.4582 61.2474 65.2012L63.1883 63.7268L64.3188 63.0128C64.5866 62.8414 64.8508 62.6611 65.1132 62.4773L65.5297 62.1708C65.7958 61.9635 66.0793 61.7794 66.3769 61.6205C66.9475 61.3313 67.4563 60.9612 67.9471 60.5709L68.6766 59.9759L69.3656 59.3625C69.9535 58.8585 70.514 58.32 71.0911 57.8036C71.3785 57.5453 71.6712 57.2931 71.9735 57.0533L72.1996 56.8789C72.2079 56.8737 72.2172 56.8703 72.227 56.8688C72.2511 56.864 72.276 56.864 72.3002 56.8688C72.3521 56.8755 72.403 56.8891 72.4513 56.9093C72.7777 56.7092 73.0861 56.4811 73.3729 56.2274L74.9408 54.875L75.7143 54.1854L77.0875 52.8913L77.1036 52.8782C77.3511 52.6705 77.6046 52.4819 77.8604 52.3022L78.2448 52.0398L78.4382 51.9143C78.489 51.8794 78.5418 51.8476 78.5964 51.8191C78.8886 51.6697 79.1873 51.537 79.4717 51.3752C79.6924 51.2552 79.892 51.0998 80.0625 50.9153L78.337 48.7578C78.1447 48.8512 77.9621 48.9634 77.792 49.0928C77.6089 49.4019 77.4052 49.6983 77.1821 49.9799C77.0913 50.0883 76.9933 50.1905 76.8888 50.2858L76.5163 50.6428L75.7571 51.3484Z" fill="#5CFFE4"/>
<path d="M41.1656 64.141C41.0853 64.2005 41.027 64.2868 40.9276 64.3921C40.98 64.5557 41.0258 64.7324 41.0966 64.9008C41.1134 64.9336 41.137 64.9625 41.1658 64.9855C41.1947 65.0084 41.228 65.025 41.2638 65.0341C41.4369 65.0543 41.6428 65.1061 41.7779 65.0382C42.1046 64.8717 42.4151 64.675 42.7055 64.451C43.0434 64.1951 43.36 63.8982 43.6866 63.6221C43.7461 63.5692 43.9139 63.4401 44.0341 63.3473L44.4286 63.0551C44.6901 62.8662 44.9621 62.6922 45.2431 62.5339C45.7606 62.2475 46.26 61.9296 46.7384 61.5819C47.1775 61.1333 47.5922 60.6614 48.0027 60.1866L49.1784 58.814C49.3694 58.589 49.5354 58.3421 49.7425 58.1315C49.9942 57.8739 50.2703 57.6353 50.535 57.3889C50.6677 57.2658 50.7968 57.1402 50.92 57.0087C50.9772 56.9539 51.0235 56.8887 51.0563 56.8165C51.1109 56.6987 51.1748 56.5853 51.2472 56.4774C51.3531 56.3564 51.4679 56.2434 51.5906 56.1394L52.4051 55.4707C53.0275 54.9732 53.6606 54.4871 54.2716 53.9766L54.4186 53.8576C54.4427 53.8403 54.4677 53.8244 54.4936 53.81L54.631 53.7416C54.7237 53.7027 54.8124 53.6549 54.8958 53.5988C54.9491 53.5705 54.9971 53.5331 55.0374 53.4881C55.088 53.4227 55.2391 53.3293 55.3468 53.2638L55.6544 53.068C55.7674 52.9943 55.8787 52.9181 55.9858 52.8396C56.4142 52.5224 56.7766 52.1464 56.9235 51.5669C57.6786 51.5669 58.129 51.4842 58.4301 51.1944C58.7862 50.8505 59.1601 50.5255 59.5504 50.221C59.9408 49.9199 60.3305 49.5968 60.7559 49.3285C61.1016 49.1059 61.2432 48.8156 61.0707 48.4074C60.6363 48.0701 60.2305 48.057 59.8711 48.4033C59.2416 49.034 58.3985 49.3219 57.7077 49.8551C57.249 50.2121 56.8408 50.5429 56.6588 51.0516C56.087 51.264 55.5455 51.4645 55.0195 51.6609L54.628 51.8055L54.4347 51.8775C54.3865 51.8905 54.3519 51.8929 54.3097 51.9013C54.1599 51.933 54.0083 51.9558 53.8557 51.9697C53.8385 51.9697 53.8194 51.9786 53.82 51.9988C53.8251 52.0629 53.8203 52.1273 53.8057 52.1898C53.7147 52.6063 53.3815 52.3844 52.7942 52.9354C52.489 53.2263 52.0279 53.356 51.7518 53.6672C51.4091 54.0546 51.0818 54.455 50.751 54.853C50.6427 54.972 50.6636 54.9875 50.6183 55.0536L50.5237 55.2136C50.4639 55.3181 50.3984 55.4192 50.3274 55.5165C50.287 55.592 50.2419 55.665 50.1923 55.7348L49.9603 56.0918L49.4099 56.813C49.0339 57.305 48.7024 57.7483 48.2723 58.2671C47.6178 59.0406 46.9097 59.785 46.0791 60.3627C45.9895 60.4259 45.9067 60.4983 45.8322 60.5787C45.5638 60.7769 45.3199 61.047 45.0587 61.2689C44.8689 61.4325 44.7017 61.6259 44.5006 61.7711L43.4177 62.5547L42.6079 63.1295L41.1656 64.141Z" fill="#5CFFE4"/>
<path d="M33.5317 71.645C33.8292 71.3933 33.8786 71.1315 33.7013 70.8864C33.524 70.6412 33.2253 70.5889 32.8879 70.7341C32.8332 70.7591 32.7547 70.7692 32.7321 70.8168C32.4173 71.4873 31.6878 71.67 31.2107 72.1513C30.9727 72.3893 30.7757 72.6214 30.884 73.0813C31.6016 73.1587 31.5932 73.2003 32.0294 72.8588C32.5399 72.4661 33.0379 72.0597 33.5317 71.645Z" fill="#5CFFE4"/>
<path d="M36.6847 67.8026C36.4045 67.9115 36.1754 68.1632 35.9951 68.4119C35.8148 68.6606 36.0826 69.2003 36.3557 69.161C36.7007 69.1029 37.0344 68.9909 37.3446 68.829C37.5939 68.7065 37.6165 68.422 37.4939 67.9538C37.2 67.8895 36.8816 67.7276 36.6847 67.8026Z" fill="#5CFFE4"/>
<path d="M38.5084 66.1855C38.1818 66.3408 37.9414 66.8917 38.0419 67.291C38.1092 67.5623 38.3567 67.6932 38.5293 67.6355C38.9821 67.4814 39.4259 67.2785 39.4527 66.5883C39.1469 66.2521 38.8726 66.0141 38.5084 66.1855Z" fill="#5CFFE4"/>
<path d="M40.9009 65.3115C40.526 65.002 40.1226 64.8485 39.7704 65.1788C39.486 65.4418 39.3408 65.8006 39.6823 66.2611C40.7015 66.3426 40.7991 66.2629 40.9009 65.3115Z" fill="#5CFFE4"/>
<path d="M61.9067 48.4332C62.1381 48.3327 62.4297 48.0983 62.4595 47.8775C62.5154 47.461 62.1364 47.3634 61.7496 47.3027L61.176 47.9233C61.2855 48.4136 61.5634 48.582 61.9067 48.4332Z" fill="#5CFFE4"/>
<path d="M41.1556 71.0509C41.0282 71.2532 41.2746 71.6138 41.5167 71.5864C42.0754 71.5239 42.5841 71.3817 42.6472 70.6344C42.2604 70.3078 41.9618 70.2953 41.7214 70.4613C41.4954 70.6182 41.303 70.8187 41.1556 71.0509Z" fill="#5CFFE4"/>
<path d="M53.5982 60.2355C53.5084 60.2753 53.4314 60.3393 53.3758 60.4203C53.3202 60.5013 53.2883 60.5961 53.2834 60.6943C53.2656 60.8603 53.381 61.1108 53.5155 61.2435C53.5934 61.322 53.8772 61.3083 53.9819 61.2304C54.1419 61.1215 54.2742 60.9766 54.3681 60.8073C54.4146 60.7142 54.4439 60.6134 54.4544 60.5098C54.4544 60.4116 54.4901 60.242 54.3949 60.173C54.3461 60.1207 54.2556 60.1236 54.1729 60.1272C54.0902 60.1308 54.0171 60.1332 53.948 60.1409C53.8271 60.1533 53.7089 60.1852 53.5982 60.2355Z" fill="#5CFFE4"/>
<path d="M50.1537 65.3637L52.279 63.0836C52.4405 62.9149 52.5861 62.7317 52.714 62.5362C52.7517 62.4778 52.784 62.4161 52.8104 62.3518C52.819 62.3128 52.8223 62.2727 52.8199 62.2328C52.8166 62.1578 52.7943 62.0849 52.755 62.021C52.6576 61.8773 52.5083 61.7769 52.3385 61.7407C52.1505 61.6556 51.9054 61.7675 51.6912 61.927C51.4684 62.1022 51.2713 62.3079 51.1057 62.538C50.832 62.895 50.6255 63.4037 50.3179 63.6156C49.9623 63.8612 49.6259 64.1337 49.3118 64.4307C48.3348 65.0656 47.4762 65.851 46.5254 66.5168L46.0583 66.8541L45.7442 67.1088L45.1313 67.6395C44.7225 67.9965 44.3025 68.3339 43.8033 68.5802C43.2844 68.8325 42.8221 69.3638 43.1256 70.2664C43.55 70.2426 43.9581 70.0944 44.2989 69.8404L47.4096 67.4479L50.1537 65.3637Z" fill="#5CFFE4"/>
<path d="M37.4267 74.1373C38.6108 74.0617 38.8035 73.8582 38.7565 73.0561C38.5019 72.8723 38.2906 72.8479 38.1145 72.8973C37.9485 72.9455 37.8057 73.0674 37.6546 73.1769C37.385 73.3739 37.2458 73.6256 37.4267 74.1373Z" fill="#5CFFE4"/>
<path d="M57.568 57.1525C57.7096 57.3423 57.8375 57.4566 57.8952 57.4703C57.9119 57.4756 57.9238 57.4738 57.9303 57.4649C57.9497 57.4265 57.9597 57.3841 57.9595 57.3411C57.9898 57.2709 58.0231 57.1948 58.06 57.1109C57.7572 56.8015 57.5507 56.6242 57.4162 56.5623C57.2931 56.4933 57.2699 56.5212 57.2847 56.645C57.2892 56.6653 57.2954 56.6852 57.3032 56.7045C57.375 56.863 57.4637 57.0132 57.568 57.1525Z" fill="#5CFFE4"/>
<path d="M39.9233 72.748C40.3719 72.6546 40.7325 72.4505 40.7372 71.8919C40.0506 71.4831 40.0197 71.4474 39.8102 71.617C39.6235 71.7693 39.4871 71.9744 39.4187 72.2054C39.3426 72.4797 39.6561 72.8033 39.9233 72.748Z" fill="#5CFFE4"/>
<path d="M54.5436 59.9164L54.5597 59.9259C54.881 60.1223 54.9536 60.1639 54.9107 60.0366C54.8491 59.9 54.7705 59.7716 54.6769 59.6546C54.5055 59.4332 54.2753 59.2577 54.1973 59.2696C54.0819 59.2916 54.1771 59.4844 54.4948 59.8575L54.5436 59.9164Z" fill="#5CFFE4"/>
<path d="M57.1491 56.9704C57.1051 56.9419 57.0855 56.902 57.0361 56.9002C56.9888 56.8986 56.9416 56.9034 56.8957 56.9145C56.8136 56.9364 56.7393 56.9807 56.6809 57.0424C56.5619 57.1614 56.4792 57.3512 56.3953 57.5523C56.9837 58.0551 57.2521 58.1313 57.5418 57.8403C57.6068 57.7745 57.6497 57.6901 57.6644 57.5988C57.6358 57.5331 57.6003 57.4706 57.5585 57.4125C57.4368 57.2521 57.2997 57.104 57.1491 56.9704Z" fill="#5CFFE4"/>
<path d="M35.6512 75.4644C36.1426 75.6709 36.3729 75.4192 36.577 75.1669C36.64 75.0884 36.6204 74.8313 36.5442 74.7409C36.4484 74.6266 36.2164 74.5219 36.1099 74.5529C35.7303 74.6606 35.4917 74.9105 35.6512 75.4644Z" fill="#5CFFE4"/>
<path d="M55.7872 59.2463C55.9991 59.0553 55.9342 58.834 55.7967 58.6603C55.5504 58.3771 55.3409 58.3033 55.1267 58.4883C55.0222 58.5778 54.9565 58.7044 54.9435 58.8414C54.9305 58.9783 54.9713 59.115 55.0571 59.2225C55.2273 59.432 55.5688 59.4457 55.7872 59.2463Z" fill="#5CFFE4"/>
<path d="M34.2541 57.9846C34.3802 58.1036 34.6789 58.1762 34.7896 58.1036C34.9859 57.9757 35.0972 57.721 35.2656 57.4884C34.7896 57.0778 34.5028 57.1183 34.2588 57.3337C34.0631 57.508 34.028 57.7746 34.2541 57.9846Z" fill="#5CFFE4"/>
<path d="M32.4495 58.7584C32.1073 58.8495 31.9104 59.1011 32.0925 59.5319C32.4233 59.7395 32.6791 59.6622 32.866 59.4724C32.957 59.3784 33.0201 59.1071 32.9594 59.0369C32.8356 58.8923 32.578 58.7263 32.4495 58.7584Z" fill="#5CFFE4"/>
<path d="M44.2358 56.5115C44.5792 56.302 44.5625 56.0771 44.1353 55.4404C43.4094 55.9992 43.2636 56.2687 43.4736 56.5674C43.6837 56.8661 43.9812 56.6685 44.2358 56.5115Z" fill="#5CFFE4"/>
<path d="M59.879 60.2318L59.76 60.3412L59.522 60.562L58.5647 61.4468C57.9964 61.9769 57.0218 62.8748 57.2819 62.7052C57.2805 62.7191 57.2755 62.7324 57.2676 62.7439C57.2589 62.7724 57.2397 62.7966 57.214 62.8117L56.3429 63.6947L55.4058 64.6401L53.7023 66.4412C53.3227 66.85 53.0199 67.3444 52.6313 67.7425L52.46 67.9168C51.5873 68.5344 50.7146 69.1528 49.842 69.772C48.7948 70.5104 48.5092 70.6865 48.0147 71.0602C47.2245 71.6552 46.5153 72.362 45.7739 73.0237C45.4556 73.3057 45.4859 73.6425 45.7632 74.1661C45.9935 74.0971 46.2333 74.0935 46.4409 73.9531C46.7538 73.7345 47.0424 73.4832 47.3019 73.2034C47.9266 72.5489 48.6287 72.0056 49.3624 71.5034L53.2656 68.8039L53.4637 68.6064C54.2884 67.7782 55.1993 67.032 55.9895 66.1669L56.9254 65.109L57.6442 64.2724L58.0012 63.8517L58.0899 63.747C58.1226 63.7089 58.1547 63.6715 58.1422 63.6828L58.1369 63.6727L58.1131 63.6245L58.1083 63.609C58.1054 63.5998 58.103 63.5905 58.1012 63.581V63.5727C58.1012 63.5727 58.094 63.5727 58.1059 63.5632L58.1732 63.5037L58.4415 63.2562L59.5185 62.2679L60.5954 61.2808L60.7227 61.1618V61.1403C60.7233 61.1306 60.7233 61.1209 60.7227 61.1112C60.7245 61.1039 60.7245 61.0964 60.7227 61.0892L60.8334 60.9922L61.482 60.5192L62.2055 60.0075L63.665 59.0001C64.0619 58.7306 64.5064 58.5307 64.9145 58.2772C65.3905 57.997 65.8433 57.6584 66.2991 57.3175C66.7549 56.9765 67.2207 56.6582 67.7057 56.372C68.7017 55.7865 69.5347 55.0333 70.2862 54.186C70.7521 53.7272 71.2061 53.2399 71.8332 52.8716L71.8618 52.8508C72.4234 52.4694 72.7543 51.9333 72.5954 51.4823C72.1081 51.402 71.6773 51.5739 71.2233 52.066L71.1823 52.11C70.9657 52.3212 70.6985 52.6259 70.5278 52.6556C69.1593 53.0049 69.1087 53.7183 68.4197 53.9837C67.8027 54.9761 66.7894 55.4712 65.8546 56.0662C64.9193 56.6897 63.9435 57.2008 63.0355 57.8071C62.337 58.2778 61.6587 58.7746 60.9851 59.2804L60.4812 59.6594L60.2301 59.851L60.1111 59.9396L60.0807 59.9694C60.0456 60.0057 59.9808 60.058 59.9683 60.0783C59.9634 60.0927 59.9564 60.1064 59.9475 60.1187C59.9432 60.1321 59.9372 60.1449 59.9296 60.1568C59.9195 60.1681 59.9153 60.1889 59.9058 60.2008C59.8963 60.2127 59.9213 60.1937 59.879 60.2318Z" fill="#5CFFE4"/>
<path d="M37.1994 81.1474L38.1585 80.4793C38.4491 80.2708 38.7117 80.0258 38.9398 79.7504C39.5717 79.4808 40.078 79.0632 40.5534 78.6044L41.2525 77.8988C41.487 77.6608 41.7071 77.4335 42.0225 77.2097C42.9108 76.5487 43.67 75.7223 44.725 75.2784C44.8904 75.2094 45.0147 75.0648 45.1539 74.9517C45.3443 74.797 45.3771 74.5906 45.2051 74.3198C44.1454 73.9521 44.0568 73.9997 43.3678 75.3135C43.1143 75.301 42.837 75.2469 42.5943 75.2897C42.3931 75.3248 42.1653 75.4212 42.0665 75.5824C41.7024 76.2024 41.0645 76.5844 40.579 76.923C40.4243 77.0247 40.2678 77.1479 40.1774 77.3145C39.8852 77.8589 39.4152 78.1707 38.8862 78.4212C38.7375 78.4908 38.5691 78.5402 38.4489 78.6484C37.7444 79.2732 37.203 79.9057 36.201 80.4644C36.0647 80.5364 35.9725 80.6798 35.86 80.7898L34.9182 81.7097L34.1619 82.4201C33.9334 82.6314 33.7305 82.8824 33.4658 83.0371C33.0231 83.296 32.8363 83.6833 32.8059 84.3176C33.2914 84.27 33.6478 84.1694 33.9435 83.9231C34.4011 83.5405 34.9241 83.2168 35.2966 82.7557C35.8303 82.0953 36.5157 81.6211 37.1994 81.1474Z" fill="#5CFFE4"/>
<path d="M31.9068 84.8341C31.62 84.9323 31.4088 85.1078 31.3457 85.5404C31.5016 85.604 31.6277 85.6968 31.6842 85.6695C31.877 85.5689 32.0591 85.4493 32.2281 85.3125C32.2685 85.2815 32.2691 85.1935 32.278 85.1292C32.2971 84.9834 32.0531 84.7877 31.9068 84.8341Z" fill="#5CFFE4"/>
<path d="M65.67 45.6862L67.2355 44.3273C67.4348 44.1571 67.605 43.953 67.7864 43.762C67.9203 43.6186 68.0244 43.433 68.1857 43.3324C68.6819 43.023 69.1763 42.7142 69.6452 42.3727L69.9915 42.1103L70.289 41.8669C70.3762 41.7987 70.4512 41.7163 70.5109 41.623C70.5655 41.5498 70.6103 41.4698 70.6442 41.385C70.6537 41.3594 70.69 41.3624 70.7114 41.3499C70.7689 41.3154 70.8245 41.2778 70.878 41.2374C70.9429 41.1898 71.0065 41.1434 71.0684 41.0994L71.4254 40.8263C71.6592 40.6478 71.8889 40.4693 72.1394 40.2753L70.79 38.5879C70.5359 38.8182 70.2325 38.9967 69.935 39.1829C69.663 39.3489 69.2709 39.6238 69.2501 39.7184C69.2515 39.7736 69.2392 39.8282 69.2144 39.8775C69.1896 39.9268 69.153 39.9692 69.1079 40.001C69.0395 40.0677 68.9538 40.12 68.8937 40.192C68.8479 40.2444 68.8342 40.2598 68.7581 40.3366L68.4927 40.5954L67.9679 41.1143C67.3051 41.7902 66.91 42.7208 66.052 43.2122C65.933 43.2848 65.8985 43.3907 65.7783 43.5401C65.4624 43.9244 65.1381 44.3017 64.7954 44.667C64.5735 44.8729 64.3432 45.0716 64.1064 45.2656C63.888 45.4471 63.578 45.6821 63.4346 45.7785C63.155 45.9689 63.0181 46.4139 62.8991 46.7763C62.8504 46.9232 63.0217 47.1571 63.1425 47.4903C63.5513 47.21 63.8672 46.9935 64.1808 46.7763L65.67 45.6862Z" fill="#5CFFE4"/>
<path d="M89.5784 55.1608C89.5784 55.1298 89.5742 55.0983 89.5719 55.0667C89.5695 55.0352 89.5665 55.0072 89.5635 54.9751C89.557 54.9049 89.5498 54.8353 89.5403 54.7669C89.5296 54.686 89.5171 54.6044 89.5022 54.5229C89.5022 54.5146 89.5022 54.5057 89.4981 54.4973C89.4838 54.4194 89.4683 54.3403 89.4511 54.2593C89.4511 54.2474 89.4457 54.2361 89.4433 54.2242C89.4261 54.1463 89.407 54.0677 89.3838 53.9862L89.3749 53.9511C89.3543 53.8718 89.3323 53.7915 89.3089 53.7101L89.3017 53.6852C89.2244 53.421 89.1351 53.1544 89.0387 52.8873C89.006 52.7968 88.9721 52.7088 88.9382 52.6159C88.8007 52.2518 88.6532 51.8889 88.5086 51.5319C88.4985 51.5069 88.4884 51.4813 88.4776 51.4557C88.4741 51.4462 88.4699 51.4361 88.4657 51.4259C88.3081 51.0362 88.1558 50.6524 88.0248 50.2889C88.0022 50.2252 87.9802 50.1616 87.9588 50.0991C87.9302 50.014 87.8993 49.9277 87.8743 49.8403C87.8594 49.7945 87.8452 49.748 87.8309 49.7016C87.8166 49.6552 87.8053 49.6189 87.7922 49.5767C87.7696 49.5017 87.747 49.4256 87.725 49.3494L87.7143 49.3125C87.5762 48.8413 87.4429 48.3498 87.2978 47.8643C87.2716 47.7774 87.2454 47.6911 87.218 47.6049C87.218 47.5941 87.2115 47.5834 87.2085 47.5727C87.1841 47.496 87.1597 47.4192 87.1347 47.343C87.1282 47.324 87.1216 47.305 87.1157 47.2835C87.0925 47.2151 87.0699 47.1473 87.0467 47.0801L87.0181 47.0009C86.9967 46.9414 86.9753 46.8819 86.9533 46.8224C86.9408 46.7891 86.9277 46.7564 86.9146 46.7237C86.895 46.6713 86.8747 46.6189 86.8551 46.5678C86.839 46.5279 86.8218 46.4886 86.8051 46.4488C86.7884 46.4089 86.7688 46.3613 86.7498 46.3179C86.7307 46.2744 86.7051 46.2215 86.6831 46.1727C86.6677 46.1406 86.6534 46.1072 86.6373 46.0751C86.5986 45.9948 86.5588 45.9162 86.5183 45.8371C86.4713 45.749 86.4213 45.6586 86.3702 45.5747L86.363 45.5628C86.313 45.4789 86.2619 45.3962 86.2095 45.3135C86.1542 45.226 86.0965 45.1398 86.037 45.0535C86.0274 45.0398 86.0179 45.0255 86.0078 45.0118C85.9578 44.9392 85.9069 44.8671 85.8549 44.7953L85.812 44.7358C85.7639 44.6691 85.7145 44.6031 85.6645 44.5376L85.6145 44.4728C85.5657 44.4097 85.5169 44.3472 85.4675 44.2847C85.4491 44.2615 85.4306 44.2389 85.4128 44.2157L85.264 44.0325L85.2081 43.964C85.1575 43.9045 85.1064 43.8415 85.0552 43.7802C85.0374 43.7582 85.0189 43.7368 85.0005 43.7147L84.8386 43.5231L84.7922 43.4684L84.5899 43.2304C84.4531 43.0717 84.3172 42.9131 84.1823 42.7544C84.1804 42.7515 84.1782 42.7487 84.1758 42.7461L84.03 42.5723L83.9705 42.5003C83.9309 42.4539 83.8928 42.4075 83.8563 42.3611L83.8027 42.2957C83.7488 42.2282 83.6952 42.161 83.6421 42.094C83.5772 42.0107 83.5124 41.9256 83.4475 41.8399L83.3916 41.7643C83.3452 41.7018 83.2988 41.6394 83.2524 41.5757L83.1964 41.499L83.0548 41.3026C83.0399 41.2812 83.0251 41.2598 83.0096 41.2389L82.8513 41.0152L82.8454 41.0069L82.6169 40.6826C82.5711 40.6166 82.5247 40.5511 82.4783 40.4857L82.4479 40.4422C82.3884 40.3577 82.3289 40.2731 82.2694 40.1882L82.2653 40.1822C81.8954 39.6518 81.4963 39.1422 81.0699 38.656L81.0396 38.6227C80.9902 38.5674 80.9402 38.5126 80.889 38.4597C80.8628 38.4317 80.8361 38.4044 80.8093 38.377C80.7718 38.3389 80.7343 38.2996 80.6968 38.2622C80.629 38.1955 80.5604 38.1303 80.491 38.0664C80.4215 38.0025 80.3531 37.9414 80.2857 37.8831L80.1607 37.776L80.0852 37.7112C80.0286 37.6636 79.9715 37.6166 79.9144 37.5696L79.8882 37.5482C79.8236 37.4954 79.7581 37.443 79.6919 37.3911C78.9643 36.8257 78.2042 36.3036 77.4154 35.8274C76.9483 35.5412 76.4717 35.2634 75.9928 34.9897L75.9618 34.9724C75.5822 34.7558 75.2014 34.5428 74.8224 34.3304C74.181 33.9734 73.5455 33.6164 72.9327 33.2534C72.7863 33.1672 72.6411 33.0797 72.4971 32.9928L72.462 32.9714C72.321 32.8851 72.1818 32.7995 72.0455 32.7126C72.0223 32.6977 71.9985 32.6846 71.9747 32.6715L71.9515 32.6596L71.8992 32.634L71.8718 32.6221C71.8547 32.6142 71.8369 32.6071 71.8182 32.6007L71.7921 32.5906L71.7254 32.568L71.71 32.5632C71.6814 32.5549 71.6522 32.5472 71.6225 32.54L71.61 32.5371C71.5844 32.5311 71.5588 32.5258 71.5326 32.521L71.5094 32.5168C71.4862 32.5127 71.4624 32.5085 71.438 32.5055L71.4154 32.502C71.3886 32.4984 71.3613 32.4954 71.3339 32.493H71.3208C71.2542 32.4871 71.1858 32.4841 71.1167 32.4841H71.112H71.0132H71.0019L70.9025 32.4895H70.8972C70.749 32.4993 70.6017 32.5191 70.4563 32.549C70.3617 32.5686 70.2677 32.5924 70.1743 32.6198C70.1278 32.6334 70.0814 32.6483 70.0356 32.6638C69.9916 32.6787 69.9476 32.6947 69.9035 32.7114H69.8964C69.8541 32.7275 69.8119 32.7447 69.7703 32.7626L69.753 32.7697C69.7143 32.7864 69.6762 32.8036 69.6382 32.8215L69.6292 32.8256C69.5906 32.8441 69.5525 32.8637 69.515 32.8851L69.49 32.8982C69.4525 32.9185 69.4156 32.9387 69.3793 32.9577L68.9831 32.8839L68.8641 32.8613L68.5981 32.8108C67.8246 32.665 67.0404 32.5133 66.2532 32.3847H66.2455C65.995 32.3431 65.7439 32.3032 65.4934 32.2657H65.4767L65.187 32.2247H65.1703C65.0733 32.211 64.9763 32.1985 64.8794 32.186H64.8686C64.7687 32.1735 64.6693 32.161 64.5711 32.1497C63.9571 32.0783 63.346 32.0307 62.7433 32.0146H62.7165H62.5309H62.4809C62.369 32.0146 62.2584 32.0146 62.1471 32.0146H62.0959H61.9496L61.8419 32.0182C61.7979 32.0182 61.7532 32.0182 61.7092 32.0236L61.5432 32.0319L61.3998 32.0414L61.2374 32.0533L61.138 32.0622C61.0785 32.0676 61.0232 32.073 60.9654 32.0795L60.8905 32.0872C60.8102 32.0962 60.7304 32.1063 60.6525 32.117L60.5852 32.1271C60.5257 32.136 60.4597 32.1455 60.3972 32.1557L60.3252 32.167C60.2437 32.1812 60.1616 32.1955 60.0807 32.2116L59.7903 32.2669L59.7118 32.2818L59.4631 32.3276L59.4137 32.3365L59.1162 32.3907L59.0406 32.4038L58.7901 32.4484L58.7217 32.4603L58.4087 32.5145L58.1975 32.5513C57.8897 32.6049 57.5781 32.6594 57.2628 32.715L57.2205 32.7227L56.7891 32.8012L56.7457 32.809C56.2697 32.8976 55.7836 32.9922 55.3016 33.0958H55.2921C54.8477 33.1916 54.4044 33.2957 53.9665 33.4111L53.9563 33.4141C53.8425 33.4438 53.7291 33.4746 53.616 33.5063L53.5922 33.5135C53.4839 33.5438 53.375 33.573 53.2673 33.6075L53.2316 33.6182C53.1281 33.6491 53.0252 33.6808 52.9228 33.7134L52.8734 33.7294C52.7759 33.7608 52.6785 33.7929 52.5813 33.8258L52.5218 33.8472C52.4296 33.8794 52.3379 33.9115 52.2469 33.9448L52.1731 33.9722C52.0869 34.0043 52 34.0365 51.9149 34.0704C51.8863 34.0811 51.8554 34.093 51.8298 34.1043C51.7489 34.1364 51.668 34.1691 51.5882 34.2025L51.4924 34.2447C51.4175 34.2768 51.3419 34.3096 51.2681 34.3429C51.2324 34.359 51.1973 34.3762 51.1616 34.3929C51.092 34.425 51.023 34.4571 50.9546 34.491C50.9153 34.5101 50.8766 34.5303 50.8356 34.5505C50.7725 34.5821 50.7088 34.6142 50.6464 34.6475C50.6035 34.6701 50.5625 34.6939 50.5202 34.7165C50.4607 34.7487 50.4048 34.7796 50.3483 34.8123C50.3019 34.8391 50.2566 34.8671 50.2108 34.8945C50.165 34.9218 50.1085 34.954 50.0579 34.9861C50.0073 35.0182 49.9591 35.0503 49.9097 35.0825C49.8604 35.1146 49.8205 35.142 49.7771 35.1693C49.7176 35.2086 49.664 35.2497 49.6081 35.2883C49.5742 35.3127 49.5397 35.3359 49.5063 35.3609C49.4179 35.4268 49.331 35.4944 49.2457 35.5638C46.2362 38.023 43.0738 40.3691 41.2727 43.8236C41.1763 44.0093 41.0817 44.1937 40.9859 44.3788C40.8225 44.6961 40.6603 45.012 40.4992 45.3266C40.4832 45.3569 40.4677 45.3861 40.4522 45.4182C40.3043 45.7094 40.1571 46.0003 40.0107 46.2911L39.9114 46.4898C39.7793 46.7532 39.6482 47.0168 39.5181 47.2806C39.4725 47.3734 39.427 47.466 39.3818 47.5584C38.5589 49.2357 37.7723 50.9166 37.0244 52.6356C34.8991 51.448 32.7672 50.2857 30.6288 49.1489C30.2246 48.9339 29.8198 48.7199 29.4144 48.5069C27.3057 47.3962 25.1784 46.3083 23.0324 45.2433C22.3386 44.8994 18.7901 45.4551 19.4797 46.7486C21.4039 50.3561 23.2645 53.9928 25.1268 57.6282L25.131 57.6366L25.7111 58.7671C27.0659 61.41 28.4267 64.0507 29.8166 66.6776V66.6823C29.9733 66.9779 30.13 67.2732 30.2867 67.5683C30.4949 67.9586 30.7035 68.3487 30.9126 68.7387C24.3825 70.695 18.007 72.8037 11.587 75.1724C10.6844 75.5056 9.71274 76.7872 11.1705 77.1157C16.6713 78.3586 22.0548 79.7486 27.4735 81.2807C26.3831 84.5334 25.3273 87.791 24.3063 91.0536C23.8839 92.4022 23.4674 93.7539 23.0568 95.1085C22.9699 95.3941 22.8833 95.6799 22.7968 95.9659C22.7165 96.2325 22.6355 96.5014 22.5588 96.7668C22.3755 97.3756 22.1935 97.9853 22.0126 98.5958C21.5878 100.029 25.5713 99.4883 25.9777 98.1156C26.2061 97.3445 26.4362 96.5744 26.6679 95.8052V95.8005C26.8991 95.0329 27.1322 94.2664 27.367 93.5008C27.7067 93.4217 27.7656 93.2033 27.7936 92.619C27.7389 92.619 27.6871 92.619 27.6371 92.625C27.8585 91.9078 28.0812 91.1914 28.3053 90.4758V90.4675C28.5294 89.7535 28.7551 89.0395 28.9824 88.3255C29.2508 88.0875 29.5179 87.8596 29.7857 87.6264C30.4211 87.0796 30.5496 86.813 30.2509 86.6107C29.8809 86.3602 29.6821 86.5149 29.5001 86.7053C30.1966 84.5399 30.9082 82.3769 31.6349 80.2162C31.8039 79.7164 31.2184 79.4606 30.8614 79.3576C26.1056 77.9951 21.3795 76.7557 16.5874 75.6199C22.4338 73.5225 27.0147 72.0647 33.6478 70.1262C33.9676 70.0243 34.2767 69.8913 34.5707 69.7293C34.5498 69.8727 34.5706 70.05 34.6611 70.275C35.1413 70.3547 35.459 70.2571 35.6208 69.893C35.6696 69.774 35.6946 69.486 35.6458 69.4491C35.5208 69.3573 35.3873 69.2776 35.2472 69.2111C35.4096 69.013 35.4756 68.7946 35.3543 68.5727C33.1355 64.4773 31.0137 60.3373 28.8926 56.1967C29.0264 56.1936 29.1574 56.157 29.2734 56.0902C29.3329 56.0586 29.3876 56.0241 29.4423 55.9872L31.8789 54.3492L31.8497 54.3069C32.0782 54.1463 32.3126 53.9946 32.5346 53.8268C33.8067 54.5281 35.077 55.2397 36.3455 55.9616C37.4118 56.5685 39.4461 55.8742 39.9007 54.7478C39.9951 54.513 40.0887 54.2823 40.1815 54.0558C40.2375 53.9931 40.2883 53.9258 40.3332 53.8547C40.4332 53.6828 40.5212 53.4817 40.4861 53.3192C40.7896 52.5927 41.0871 51.9019 41.387 51.2284C41.3924 51.4922 41.4404 51.7534 41.5292 52.0019C42.2015 52.0239 42.496 51.608 42.8465 51.2219C43.0042 51.0481 43.1268 50.7839 42.8566 50.5745C42.6716 50.4317 42.3675 50.3216 42.1652 50.3561C41.997 50.3808 41.8369 50.4443 41.6976 50.5418C42.5425 48.6854 43.429 46.9051 44.5381 44.7762C45.2747 43.3613 45.7989 42.2005 46.423 41.5632C46.6896 41.4043 46.9585 41.2443 47.218 41.0581L50.9111 38.3806C51.994 37.5261 53.1198 36.7193 54.1551 35.8102C54.9506 35.6275 55.7616 35.4609 56.5666 35.2877L56.6588 35.2675L56.9563 35.2027L57.0914 35.1735L57.3532 35.114L57.5067 35.0795L57.7519 35.0236L57.9161 34.9855L58.1541 34.9296L58.3219 34.8885C58.3998 34.8701 58.4772 34.8504 58.5545 34.829L58.7217 34.7868L58.9555 34.7273L59.1186 34.6838C59.1983 34.6624 59.278 34.6398 59.3566 34.6172L59.5113 34.5743L59.7719 34.4976L59.9016 34.4589C60.0309 34.4192 60.1598 34.3796 60.2883 34.3399C60.3336 34.3572 60.38 34.3726 60.4276 34.3875L60.4871 34.406L60.5555 34.4244C60.6108 34.4399 60.6674 34.4542 60.7251 34.4666L58.5152 36.2356C58.3278 36.3885 58.1368 36.5331 57.9589 36.6931C57.6156 36.9508 57.2949 37.262 57.1384 37.6945C57.0789 37.873 56.8861 38.0265 56.7106 38.1045C56.2626 38.3026 55.9371 38.6233 55.6396 39.0011C55.4081 39.2903 55.0958 39.5093 54.8066 39.7443C53.9665 40.4202 53.1406 41.1223 52.2588 41.7334C51.5305 42.2689 50.8475 42.8639 50.0894 43.3512C49.8319 43.509 49.5947 43.6978 49.3832 43.9135C49.1767 44.133 49.0208 44.3859 48.9756 44.6751C48.5877 44.5775 48.3128 44.6394 48.0783 44.7881C47.9565 44.8889 47.8483 45.0051 47.7564 45.1338C47.6422 45.2867 47.5654 45.5467 47.3994 45.561C46.711 45.6753 46.3695 46.1989 45.9929 46.7076C45.7424 47.0438 45.3086 47.2288 45.0551 47.5638C44.9541 47.6962 44.8455 47.8225 44.7297 47.9422C44.6369 48.0413 44.5375 48.1339 44.4322 48.2195C44.2217 48.3894 43.9967 48.5405 43.7598 48.6711L43.6956 48.7181C43.4804 48.8841 43.2877 49.0776 43.1226 49.2935C43.0272 49.4071 42.9715 49.5487 42.9637 49.6969C42.9637 49.854 43.0369 50.0777 43.1565 50.1848C43.2666 50.2841 43.529 50.3454 43.6379 50.2877C43.9354 50.1449 44.1793 50.0265 44.3745 49.82L44.6125 49.563L46.4885 47.9452L48.4871 46.1882C48.6239 46.072 48.7532 45.9474 48.8744 45.8151C49.013 45.6927 49.1241 45.5425 49.2005 45.3742C49.3237 45.1231 49.5171 45.1154 49.7711 45.088C50.0252 45.0606 50.284 45.0523 50.4548 44.85C50.4768 44.8256 50.5143 44.8167 50.5416 44.7959L52.7074 43.2762L53.9867 42.395L55.2201 41.4395L57.6828 39.5194L59.3036 38.2586L59.9105 37.6832L60.208 37.3929L60.446 37.1489C60.9303 36.6396 61.4438 36.1969 62.0656 35.8601C62.5273 35.6079 62.9426 35.2776 63.3669 34.9676L63.6263 34.7683L67.0481 35.2348L67.1213 35.2443C66.9583 35.3782 66.7935 35.5079 66.6269 35.6358L65.8581 36.2183C65.7391 36.326 65.6237 36.4367 65.5136 36.5557L65.3 36.7752L65.0305 37.0418L64.4872 37.5708L63.3966 38.6257C63.2616 38.7572 63.1836 38.9732 63.0218 39.0493C62.7136 39.1939 62.4863 39.4063 62.2429 39.6562C61.9347 39.9716 61.6402 40.3072 61.3129 40.5981C61.0076 40.8411 60.662 41.0286 60.2919 41.1521C60.1791 41.1959 60.0846 41.2769 60.0242 41.3817C59.6236 42.1043 59.0363 42.706 58.3236 43.1239C57.6816 43.5065 57.1801 44.1187 56.5981 44.6049C56.0775 45.0606 55.4837 45.395 55.1344 46.0245C55.0452 46.1834 54.8185 46.2947 54.6269 46.3411C53.9129 46.5118 53.3387 46.8706 52.805 47.2931C52.2826 47.7048 51.7126 48.2421 51.4234 48.4831C51.4017 48.6364 51.3536 48.7847 51.2812 48.9216C51.2153 49.0758 51.1108 49.2104 50.9778 49.3125C50.8463 49.4178 50.7213 49.4618 50.4316 49.616C49.977 49.8361 49.9425 50.3252 50.2049 50.5822C50.4274 50.8006 50.7713 50.753 51.2033 50.4002C51.2223 50.3764 51.3818 50.2591 51.377 50.1901C51.433 49.8926 51.5841 49.7004 51.8096 49.6041C51.9062 49.5755 52.0064 49.5608 52.1071 49.5606C52.2481 49.5606 52.3861 49.4351 52.5105 49.3423L53.826 48.4188C54.2768 48.1026 54.7076 47.7588 55.116 47.3895C55.7378 46.8058 56.4845 46.4577 57.161 45.9615C58.1434 45.2302 59.1602 44.5335 60.061 43.7046C60.3211 43.4666 60.5686 43.2191 60.8345 42.9936C60.9675 42.8786 61.1066 42.7707 61.251 42.6705C61.4405 42.5347 61.6376 42.4097 61.8413 42.2963C62.048 42.1896 62.2426 42.0607 62.4214 41.9119L62.4297 41.9047C62.7671 41.5638 63.1134 41.2372 63.4668 40.92C63.7191 40.6975 63.9791 40.4851 64.2445 40.2792C64.7764 39.8687 65.3292 39.4831 65.8825 39.0963C66.0827 38.9541 66.2746 38.8005 66.4573 38.6364L66.7292 38.3859L66.9464 38.1765C67.0488 38.0604 67.1408 37.9356 67.2213 37.8034C67.3278 37.6749 67.4474 37.5577 67.6289 37.5119C68.1185 37.309 68.5517 36.7842 69.042 36.4843L69.0896 36.4516L69.0384 36.3885L69.089 36.4516L69.1312 36.4129C69.4686 36.0684 69.9119 35.8179 70.2564 35.4811C70.439 35.5876 70.6241 35.6941 70.8091 35.8L71.0067 35.9131L71.3173 36.0916C71.7879 36.3599 72.2621 36.6271 72.7339 36.902L72.7268 36.9067C72.6292 36.9793 72.5338 37.0547 72.4406 37.1328C72.2532 37.2893 72.0729 37.4553 71.8938 37.6237C71.5368 37.9611 71.1852 38.3056 70.796 38.5882L71.206 39.1011L71.914 39.9841L72.1443 40.2727C72.8297 39.6943 73.4122 39.2522 74.1239 38.6197C74.2264 38.5188 74.3358 38.425 74.4511 38.3389C74.5541 38.2711 74.6558 38.2021 74.7581 38.133C75.014 38.2996 75.2651 38.4698 75.5114 38.6435L75.6429 38.7364L75.8214 38.8667C75.9166 38.9361 76.011 39.0065 76.1046 39.0779C76.1391 39.1041 76.1736 39.1303 76.2076 39.157C76.2938 39.2231 76.3795 39.2903 76.464 39.3575L76.5622 39.4367C76.6711 39.5253 76.7794 39.6152 76.8847 39.705C76.9114 39.7276 76.9382 39.7514 76.9656 39.7764L76.9799 39.7889L77.062 39.8645C77.015 39.8984 76.9668 39.9311 76.9162 39.9627C76.5836 40.1727 76.2671 40.4161 75.9487 40.6552L75.7649 40.7885L75.6215 40.8843C75.5252 40.9464 75.4246 41.0015 75.3204 41.0491C74.8099 41.2788 74.5433 41.9375 73.993 42.0844C73.8853 42.1132 73.7801 42.1504 73.6782 42.1957C73.6115 42.2849 73.5518 42.3792 73.4997 42.4777C73.3676 42.73 73.1261 42.8853 72.8756 43.0329C72.7506 43.1066 72.6227 43.1792 72.5061 43.2602C72.4538 43.2963 72.404 43.336 72.3573 43.3792C72.3442 43.3965 72.3357 43.417 72.3329 43.4387C72.3205 43.5098 72.2859 43.5752 72.2341 43.6255C72.1912 43.6745 72.16 43.7327 72.1431 43.7957C72.1387 43.8168 72.1359 43.8383 72.1348 43.8599C72.1384 43.8766 72.1348 43.9028 72.0919 43.9682L71.9087 44.2978C71.7962 44.5188 71.6621 44.7281 71.5082 44.9226C71.0537 45.4581 70.5699 45.9579 70.0737 46.4494L69.3222 47.1788L68.0132 48.4188L66.8643 49.3589L66.6263 49.5493L66.4644 49.6725L66.133 49.9063L65.4571 50.3591C64.8675 50.7619 64.0928 51.0291 63.7316 51.589C63.2996 52.2583 62.594 52.4571 62.112 52.9956C61.188 53.9505 60.1009 54.708 58.9353 55.3523C58.5414 55.5683 58.3879 55.8807 58.5289 56.2383C58.6366 56.5144 59.0644 56.6667 59.3976 56.4168C59.8635 56.0675 60.4472 55.9235 60.8911 55.588C61.866 54.8371 62.7899 54.0221 63.6566 53.1485C63.8137 52.9979 63.9607 52.8165 64.1493 52.7272C65.2787 52.2016 66.349 51.5574 67.3421 50.8054C67.4747 50.7042 67.8068 50.4281 68.0775 50.1919L68.9141 49.4708L69.2359 49.1649L69.8113 48.6443L70.1035 48.3903L70.2504 48.2629L70.3415 48.1909L71.0245 47.6655C71.4821 47.3181 71.9331 46.9617 72.3335 46.5386C72.5857 46.2841 72.857 46.0494 73.1451 45.8365L73.5658 45.4991C73.6455 45.4396 73.6348 45.448 73.6598 45.4039C73.6728 45.3781 73.6915 45.3555 73.7145 45.3379C73.7676 45.3124 73.8227 45.2913 73.8793 45.2748C74.1167 45.1146 74.3382 44.9321 74.541 44.7298C74.7373 44.5561 74.9164 44.3556 75.133 44.2104C75.1669 44.1865 75.1993 44.1604 75.23 44.1324C75.2641 44.1088 75.2967 44.0829 75.3276 44.0551C75.5168 43.8766 75.7512 43.7451 75.9654 43.5922C76.2867 43.394 76.5634 43.1441 76.8383 42.8907L77.2548 42.5122C77.5011 42.3082 77.7784 42.085 78.0521 41.8857C78.2234 41.7608 78.3894 41.6304 78.5542 41.496C79.0671 42.1118 79.6151 42.8097 80.1465 43.519L78.6953 44.7685C78.3781 45.0327 78.0634 45.2522 77.7671 45.354C77.4249 45.575 77.0971 45.8176 76.7859 46.0805L76.8055 46.1054L76.7859 46.0805C76.618 46.201 76.4659 46.3421 76.3331 46.5005C76.2629 46.7433 76.0314 46.917 75.775 47.0747L75.5804 47.1889L75.4846 47.2449C75.4549 47.2609 75.4668 47.2449 75.4567 47.249C75.4358 47.2425 75.4198 47.2413 75.4198 47.258C75.4222 47.2847 75.4272 47.3112 75.4347 47.3371L75.4727 47.443L75.4936 47.4954L75.5031 47.5204C75.5047 47.5241 75.5057 47.5282 75.5061 47.5323L75.4674 47.5834C75.2645 47.8627 75.0281 48.1161 74.7635 48.3379C74.1893 48.8026 73.8359 49.4981 73.1832 49.898C72.8345 50.1116 72.8393 50.6715 73.1237 51.035C73.323 51.2879 73.7062 51.3004 74.0792 51.0594C74.1619 51.0059 74.2256 50.9261 74.3047 50.8666L76.1195 49.5041C76.2516 49.4065 76.4128 49.3417 76.5318 49.2316L76.7805 49.0019C76.821 48.9644 76.8293 48.9567 76.8311 48.9561C76.5449 49.1852 77.5999 48.3319 77.7093 48.2421C77.7254 48.2623 78.0348 48.0291 78.2222 47.8762C78.5983 47.5787 79.1897 47.092 79.1742 47.0723C79.4676 46.8379 80.0965 46.3381 81.4203 45.2832C81.487 45.3795 81.5524 45.4753 81.6161 45.5694L81.6286 45.5878C81.6917 45.6812 81.7541 45.7734 81.8142 45.8639L80.6683 46.9509L80.4398 47.1651C80.4094 47.1931 80.4255 47.1693 80.4166 47.1741C80.7301 46.8873 79.5062 47.7845 78.7827 48.295C78.6189 48.4328 78.4693 48.5865 78.3359 48.7538L78.8119 49.3488L79.749 50.5239L80.0608 50.9131C80.2787 50.7875 80.4743 50.6266 80.6397 50.4371C80.8605 50.1949 81.0562 49.9331 81.2663 49.6814C81.3698 49.5553 81.4781 49.4315 81.5941 49.3143C81.6536 49.2548 81.7131 49.1953 81.7726 49.1429C81.815 49.1043 81.8595 49.0679 81.9059 49.034C81.9373 49.0237 81.9699 49.0169 82.0029 49.0138C82.0535 49.0071 82.1016 48.9877 82.1427 48.9573C82.1427 48.971 82.2908 48.846 82.4015 48.7538L82.746 48.4658C82.8537 48.3748 82.9614 48.2831 83.0679 48.1909C83.1054 48.2843 83.1423 48.3807 83.1786 48.4777L83.1982 48.5301C83.2297 48.6146 83.2613 48.7002 83.2928 48.7865C83.2988 48.8026 83.3047 48.8187 83.3101 48.8347C83.385 49.0424 83.4582 49.2554 83.5314 49.4732L83.5391 49.497C83.5725 49.5965 83.6056 49.6969 83.6385 49.798C83.6445 49.8159 83.6504 49.8331 83.6558 49.851C83.6883 49.9513 83.7208 50.0525 83.7533 50.1544C83.7533 50.1628 83.7587 50.1711 83.7617 50.18C83.8351 50.4113 83.9081 50.6453 83.9806 50.8821L83.8616 50.972L83.8414 50.988C83.8265 50.9975 83.7926 51.0041 83.7385 51.0261L83.551 51.0511C83.5177 51.066 83.551 51.0297 83.457 51.0916L83.2476 51.2248L82.815 51.5015C82.2385 51.8775 81.6744 52.2679 81.3686 52.5499L81.7375 53.0116L81.3686 52.5499C80.9654 52.838 80.5858 53.1577 80.2333 53.5061L80.1036 53.634L80.0441 53.6977L79.9329 53.7994C79.7817 53.9398 79.6354 54.0755 79.4979 54.2052C79.2254 54.4634 78.988 54.6955 78.8053 54.8835C78.6976 54.9995 78.6346 55.0733 78.5798 55.1405C78.3546 55.4083 78.1134 55.6623 77.8575 55.9009L77.3279 56.4061C76.4485 57.2831 75.5519 58.1423 74.6909 59.0354C74.4987 59.2288 74.5523 59.1961 74.5124 59.2544L74.4529 59.3799L74.3773 59.5191C74.3641 59.5457 74.3488 59.5712 74.3315 59.5953L74.1114 59.8041C73.8174 60.0814 73.5164 60.351 73.2028 60.6026C72.0057 61.5392 70.7794 62.3876 69.6524 63.4812C69.5073 63.636 69.3218 63.747 69.1169 63.802C68.5523 63.934 68.1441 64.2815 67.7931 64.6945C67.5943 64.9194 67.3668 65.1172 67.1166 65.2829L65.7665 66.1849L65.3298 66.4914C65.0019 66.7752 64.6848 67.0751 64.373 67.3785L63.9119 67.8366L63.684 68.0681L63.565 68.2127C63.4508 68.3525 63.5138 68.6506 63.4954 68.8755L63.7245 69.0415L64.3099 68.7535C64.6134 68.562 64.9151 68.3686 65.2096 68.1585C65.5041 67.9485 65.7891 67.6938 66.0729 67.4487C66.2336 67.3333 66.3948 67.2184 66.5602 67.1096L68.1834 66.0522L69.2681 65.3656C69.994 64.9116 70.7246 64.4648 71.4755 64.0447C72.822 63.2189 74.0453 62.2597 75.2579 61.2613L75.4924 61.0644L75.5745 60.9882C75.6221 60.9419 75.6741 60.9002 75.7298 60.8638C75.7935 60.8123 75.867 60.774 75.9458 60.7514C75.963 60.7734 76.154 60.6264 76.2968 60.5134C76.4396 60.4003 76.5872 60.279 76.727 60.1564C77.0063 59.9088 77.2703 59.6445 77.5177 59.365C77.867 58.9711 78.2859 58.6433 78.6833 58.2976C78.8577 58.1465 79.1171 58.0667 79.2337 57.8811C79.5727 57.4511 79.9438 57.0475 80.344 56.6738C80.582 56.4781 80.8242 56.2913 81.0723 56.105L81.4495 55.8289L81.6369 55.6957L81.7559 55.6201C82.0685 55.4218 82.3858 55.2197 82.7079 55.0138C82.8278 54.8974 82.9407 54.7741 83.0459 54.6443C83.1958 54.5701 83.3411 54.4869 83.4808 54.395C83.8682 54.0255 84.2288 53.6405 84.6072 53.2925L84.6988 53.2121L84.7613 53.4073C84.7654 53.4216 84.7702 53.4364 84.775 53.4507C84.794 53.5102 84.8136 53.5697 84.8345 53.6292L84.8505 53.6792C84.8803 53.77 84.91 53.8603 84.9398 53.9499C84.9529 53.9886 84.9654 54.0273 84.9785 54.0654C84.9915 54.1034 85.0017 54.1344 85.0136 54.1695C85.029 54.2141 85.0445 54.2587 85.0594 54.3028L85.0915 54.3956C85.1094 54.445 85.1266 54.4944 85.1439 54.5431L85.1635 54.6211L85.2432 54.8395C85.2682 54.9055 85.2902 54.9727 85.3111 55.0418C85.3271 55.0959 85.3414 55.1518 85.3551 55.2078C85.3587 55.2214 85.3628 55.2345 85.3658 55.2482C85.3994 55.3912 85.4256 55.5358 85.4443 55.6814C85.0939 55.8957 84.758 56.1328 84.4388 56.3912C84.1456 56.6217 83.8674 56.8705 83.6058 57.1362L83.2934 57.4533C83.2195 57.5325 83.1412 57.6076 83.059 57.6782C82.702 57.9811 82.345 58.2768 81.9797 58.5707L80.7724 59.6613L79.9727 60.3444C79.4563 60.7853 78.8273 61.0828 78.531 61.7784C78.437 61.988 78.3127 62.1826 78.1621 62.3561C78.03 62.5185 77.7944 62.7512 77.7843 62.7791L77.5826 63.0308L77.3535 63.2688L77.294 63.3283L77.1548 63.4509L76.8775 63.6954L75.7613 64.6712C75.3579 65.0235 74.8813 65.2966 74.5374 65.7071C74.2929 65.9914 74.017 66.2471 73.7151 66.4693C73.4051 66.6818 73.0683 66.8638 72.7393 67.0536C72.0783 67.4297 71.4261 67.8134 70.9228 68.4055C70.7728 68.584 70.4688 68.5982 70.2564 68.7196C70.1374 68.7875 70.0184 68.8529 69.9035 68.9285C69.8417 68.9682 69.7821 69.0113 69.725 69.0576C69.6438 69.1209 69.5665 69.189 69.4936 69.2617C69.1154 69.6406 68.708 69.9892 68.275 70.3041C67.881 70.6561 67.4583 70.9745 67.0112 71.2561C66.8803 71.337 66.7542 71.4227 66.6316 71.5102C66.5454 71.5655 66.4722 71.6167 66.3972 71.6744C66.2512 71.7863 66.1161 71.9118 65.9938 72.0493C65.7446 72.3344 65.546 72.66 65.4065 73.012C65.347 73.1583 65.228 73.3582 65.1043 73.369C64.6794 73.4094 64.3617 73.5986 64.0755 73.8319L63.7911 74.0746L63.4603 74.3686C63.2407 74.5655 63.0194 74.7583 62.7855 74.935C62.7118 74.9909 62.6665 75.0808 62.5981 75.1617L62.7082 75.8549L62.7576 76.1042C62.81 76.0953 62.8619 76.0831 62.9129 76.0679C63.4633 75.9578 63.8696 75.6175 64.2469 75.3057L64.8472 74.8071L65.2471 74.4614L66.0378 73.7557C66.3014 73.5219 66.568 73.2898 66.8423 73.0661L67.2588 72.7371L67.7806 72.3491C68.2215 72.0249 68.6534 71.6899 69.086 71.3513L72.462 69.1421C72.54 69.0898 72.6255 69.0496 72.7155 69.0231C73.4414 68.8345 73.9793 68.3644 74.5338 67.9194C74.7296 67.7682 74.8861 67.5731 75.0854 67.4344L77.2066 65.9154L78.268 65.1538L78.5328 64.9628L78.6929 64.8539L78.9797 64.6623L79.0451 64.6088C79.136 64.53 79.2143 64.4377 79.2772 64.3351C79.3412 64.2499 79.4095 64.1681 79.4818 64.0899C79.5634 63.9971 79.6467 63.9061 79.7341 63.8198C80.2488 63.3087 80.7837 62.8196 81.315 62.3269C81.456 62.1954 81.6203 62.0889 81.7583 61.9575L82.2064 61.5023L82.4372 61.2708C82.5562 61.1598 82.6752 61.0511 82.7942 60.9448L83.5034 60.3426L84.816 59.4103C84.9207 59.3389 85.0249 59.2667 85.1284 59.1937C85.1135 59.2633 85.098 59.3329 85.0826 59.4031C85.0778 59.4227 85.0737 59.4424 85.0689 59.4626C85.054 59.5293 85.0386 59.5959 85.0231 59.6631C85.0177 59.6851 85.0124 59.7072 85.0076 59.7298C84.9915 59.7964 84.9761 59.863 84.96 59.9297C84.9547 59.9511 84.9493 59.9731 84.9445 59.9945C84.9279 60.063 84.9112 60.132 84.894 60.2004C84.8904 60.2165 84.8862 60.2331 84.8821 60.2492L84.8267 60.4717C84.7399 60.8186 84.6482 61.1643 84.5637 61.5047C84.5518 61.5523 84.5399 61.6004 84.5274 61.648C84.5179 61.6861 84.5084 61.7242 84.4983 61.7623L84.4572 61.9271C84.4489 61.9586 84.4412 61.9908 84.4328 62.0223C84.4192 62.0818 84.4049 62.1348 84.3912 62.1913C84.384 62.2204 84.3763 62.2508 84.3692 62.2793C84.3555 62.3388 84.3412 62.3936 84.3275 62.4501C84.321 62.4769 84.315 62.5037 84.3085 62.5304C84.2942 62.5899 84.2805 62.6494 84.2668 62.7054L84.2543 62.7607C84.221 62.9031 84.1895 63.0435 84.1597 63.182L83.6421 63.6764C83.3101 63.9935 82.9799 64.3143 82.6651 64.6504L81.5887 65.8071L81.3127 66.0885L81.0747 66.3218C80.9637 66.4279 80.8465 66.5273 80.7236 66.6193L80.6867 66.6466L80.25 66.9156C80.1958 66.9465 80.0602 67.0411 79.9525 67.1155L79.6211 67.3535C79.1785 67.6688 78.7617 68.0188 78.3745 68.4001C78.0681 68.7077 77.7873 69.0641 77.4225 69.2807C76.3319 69.9656 75.4543 70.9467 74.3881 71.6857C74.0102 71.9457 73.6741 72.2611 73.3266 72.561C73.1522 72.7103 72.9743 72.8585 72.7863 72.9899L72.6435 73.0881L72.4466 73.2149C72.3115 73.2982 72.1735 73.3779 72.0301 73.4529C71.7232 73.6174 71.4252 73.7981 71.1376 73.9943C70.686 74.3751 70.229 74.7583 69.775 75.1409C69.0955 75.671 68.466 76.2024 67.9948 76.939C67.7824 77.265 67.5908 77.5536 67.06 77.653C66.6376 77.7648 66.2443 78.1754 65.8385 78.4509L65.9069 79.1869L65.9527 79.5076C66.0358 79.5076 66.1188 79.5032 66.2014 79.4945C66.8191 79.4677 67.2356 79.2214 67.6045 78.8174C67.9763 78.4241 68.1197 78.17 68.4148 77.9356L72.0051 75.1183L72.8506 74.6006L73.7853 74.0395C74.0489 73.8795 74.3083 73.7164 74.5588 73.5445C75.0709 73.2042 75.5541 72.8223 76.0035 72.4027C76.251 72.1688 76.5985 72.0457 76.8906 71.8612C77.4368 71.5387 77.9658 71.2002 78.4114 70.7664C78.8363 70.3446 79.27 69.9638 79.79 69.6645C80.3755 69.3289 80.9527 68.891 81.4626 68.5019C81.6268 68.3793 81.7756 68.2377 81.9267 68.1002C82.0658 67.943 82.2183 67.798 82.3825 67.6671L83.3642 66.8846V66.8894C83.2726 67.292 83.1798 67.6944 83.0858 68.0967L83.0774 68.1312C82.9906 68.5048 82.9033 68.8781 82.8156 69.251C82.6173 70.0959 82.4211 70.9408 82.2272 71.7857C81.6185 72.2331 80.8801 72.5086 80.4356 73.1774C80.391 73.244 80.2518 73.2285 80.1601 73.2601C79.7228 73.407 79.3551 73.6474 78.9934 73.9057C78.6295 74.1637 78.2794 74.4406 77.9444 74.7351C77.532 75.082 77.1596 75.4765 76.7597 75.8394C76.4985 76.0774 76.1861 76.2595 75.9577 76.5278C75.7458 76.7712 75.5864 76.9872 75.3079 77.2097C75.0196 77.4489 74.6756 77.6114 74.3077 77.6821L74.1221 77.8553C73.746 78.2759 73.323 78.7014 72.941 79.0512C72.5952 79.3705 72.2285 79.6662 71.8432 79.9366C71.4731 80.196 71.2209 80.6119 70.8781 80.9124C70.6817 81.0741 70.5264 81.2801 70.4248 81.5133C70.2959 81.7982 70.2656 82.1179 70.3385 82.4219C70.6535 82.5325 70.9992 82.5154 71.3018 82.3743C71.5398 82.2719 71.7433 82.0911 71.9331 81.9221L73.2593 80.7577C73.4765 80.5595 73.6889 80.3566 73.8942 80.1448C74.1102 79.9235 74.3583 79.6593 74.5749 79.3999C74.7034 79.2487 74.8404 79.1051 74.9854 78.9697C75.246 78.7656 75.5394 78.5693 75.7994 78.3806L76.1867 78.1064L76.5348 77.8684L77.2435 77.4126L78.6851 76.5141C79.1611 76.2107 79.6371 75.8971 80.084 75.5621C80.5308 75.2271 80.9205 74.8148 81.293 74.393C81.4222 74.251 81.5706 74.1279 81.7339 74.027C81.6943 74.2091 81.6564 74.3914 81.6203 74.5738C81.6149 74.6006 81.6096 74.628 81.6036 74.6548C81.5707 74.8134 81.5386 74.9737 81.5072 75.1355C81.5007 75.1671 81.4941 75.1986 81.4882 75.2301C81.4531 75.4086 81.4192 75.5824 81.3852 75.7585L81.3799 75.7864C81.3434 75.9776 81.3077 76.1688 81.2728 76.36C81.2728 76.3755 81.2674 76.3904 81.2645 76.4058C81.2347 76.5701 81.205 76.7343 81.1764 76.8985C81.1669 76.9515 81.158 77.0044 81.149 77.0574C81.1264 77.1871 81.1044 77.3162 81.083 77.4459L81.0526 77.6286C81.0316 77.7571 81.0118 77.8858 80.9931 78.0147L80.9664 78.1819C80.9382 78.364 80.911 78.5463 80.8848 78.7287L80.8777 78.7787C80.798 78.8382 80.7177 78.8977 80.6397 78.9572C80.2232 79.2726 79.774 79.582 79.486 80.0104C79.0772 80.6155 78.534 80.9933 77.9319 81.3652L77.2066 81.8346L76.7978 82.1607C76.4015 82.4695 76.0296 82.8116 75.603 83.0455C75.2139 83.2585 74.8599 83.4691 74.6969 83.9136C74.651 84.0373 74.5725 84.1742 74.4642 84.2313C73.6681 84.6537 73.0481 85.3201 72.4061 85.9568L72.3579 86.0163C72.0426 86.4078 71.707 86.7898 71.4303 87.1992C71.0971 87.6978 70.7699 88.1827 70.2451 88.5153C69.7494 88.8295 69.4049 89.2477 69.4466 90.0462C70.1737 90.0605 70.6586 89.7047 71.0257 89.3049C71.7861 88.4719 72.5977 87.6984 73.3242 86.9147C73.9458 86.389 74.5255 85.8157 75.058 85.2C75.8547 84.2604 76.9834 83.5857 77.9182 82.8414L77.9604 82.8069C78.4067 82.523 78.8654 82.2809 79.3105 81.9637L80.5755 81.0457L80.5326 81.3711C80.5326 81.38 80.5326 81.3896 80.5285 81.3991C80.4987 81.6192 80.4682 81.8392 80.4368 82.0589C80.4368 82.0708 80.4333 82.0827 80.4321 82.0952C80.4166 82.1994 80.4017 82.3035 80.3856 82.4076V82.4219C80.3523 82.6432 80.3174 82.8644 80.2809 83.0853C80.2809 83.0948 80.2809 83.1044 80.2762 83.1139C80.2202 83.4477 80.1572 83.7809 80.0935 84.1123V84.1242C80.0491 84.3467 80.0015 84.5689 79.9507 84.7906C79.9507 84.7936 79.9507 84.7965 79.9507 84.8001C79.8745 85.1321 79.7901 85.4625 79.6972 85.7914C79.6961 85.7966 79.6947 85.8018 79.6931 85.8069C79.6306 86.0264 79.5645 86.2454 79.4931 86.4614C78.8214 86.5857 78.4816 87.1016 78.1104 87.602C77.8593 87.9387 77.4261 88.1232 77.1726 88.4582C77.0719 88.5906 76.9632 88.7168 76.8472 88.836C76.754 88.935 76.6546 89.028 76.5497 89.1145C76.339 89.2845 76.1138 89.4358 75.8767 89.5667L75.8125 89.6143C75.5929 89.769 75.4109 89.9796 75.2389 90.1896C75.1435 90.3032 75.0879 90.4449 75.0806 90.593C75.0806 90.7501 75.1538 90.9732 75.2728 91.0809C75.3918 91.1886 75.6465 91.2416 75.7542 91.1833C76.0517 91.0399 76.2956 90.9221 76.4908 90.7156L76.7288 90.458L78.6006 88.8431L78.6601 88.7926V88.7961L78.3585 89.6089C78.3323 89.6785 78.3067 89.7475 78.2811 89.8172L78.2377 89.9362C78.2 90.0373 78.1627 90.1389 78.1258 90.2408C78.1122 90.2771 78.0991 90.3134 78.086 90.3503C78.055 90.4336 78.0265 90.5169 77.9943 90.6008C77.9842 90.6299 77.9735 90.6603 77.9628 90.6882L77.8486 91.0072L77.8164 91.0982C77.7849 91.1863 77.7569 91.2767 77.7236 91.3618L77.6951 91.4445C77.657 91.5528 77.6195 91.6617 77.5826 91.7699L77.5558 91.8503C77.5253 91.9403 77.4951 92.0302 77.4654 92.1198C77.4565 92.1478 77.4469 92.1757 77.4374 92.2043C77.4017 92.3138 77.3662 92.4236 77.3309 92.5339L77.3095 92.6018C77.2801 92.6942 77.2512 92.7868 77.2226 92.8796C77.2137 92.9082 77.2054 92.9391 77.1964 92.9653C77.1623 93.0764 77.1292 93.1874 77.0971 93.2985C77.0917 93.3163 77.087 93.3342 77.0816 93.352C77.0538 93.4484 77.0263 93.545 76.9989 93.6418C76.9912 93.671 76.9828 93.7013 76.9751 93.7287C76.9442 93.8405 76.9156 93.953 76.8847 94.0649L76.8763 94.0982C76.8498 94.2005 76.824 94.3031 76.799 94.4058L76.7776 94.4939C76.7502 94.6069 76.7238 94.72 76.6984 94.833C76.6699 94.9603 76.6431 95.0883 76.6163 95.2162C76.6098 95.2471 76.6038 95.2757 76.5973 95.3084C76.5741 95.4232 76.5515 95.5375 76.5295 95.6523L76.5223 95.6892C76.47 95.9669 76.421 96.2469 76.3754 96.5294C76.3385 96.4699 76.298 96.4056 76.2516 96.336C75.5263 96.8953 75.3799 97.1648 75.59 97.4623C75.7684 97.7194 76.0064 97.6152 76.2331 97.4819C76.0909 98.5131 75.9809 99.5526 75.8684 100.591L75.8089 101.131L75.7946 101.259C75.7684 101.491 75.7419 101.723 75.7149 101.954C75.7149 101.969 75.7107 101.986 75.7089 102.001C75.682 102.229 75.6538 102.458 75.6245 102.685C75.6245 102.706 75.6191 102.727 75.6161 102.745C75.5852 102.985 75.5523 103.225 75.5174 103.463L74.7236 104.023L73.2819 105.035C73.201 105.091 73.1427 105.181 73.0439 105.287C73.0969 105.45 73.1427 105.627 73.2129 105.795C73.23 105.828 73.2536 105.857 73.2824 105.88C73.3112 105.903 73.3445 105.919 73.3801 105.929C73.5533 105.948 73.7591 106 73.8942 105.932C74.2212 105.766 74.5317 105.57 74.8218 105.345C74.9717 105.232 75.1193 105.11 75.2615 104.988C74.9218 106.825 74.5178 108.654 74.1054 110.48L74.0733 110.625C74.0213 110.854 73.9694 111.083 73.9174 111.312C73.8883 111.327 73.8602 111.343 73.8335 111.362C73.6087 111.518 73.417 111.717 73.2694 111.948C73.1421 112.15 73.3885 112.511 73.6312 112.483H73.6538C73.5836 112.797 73.5136 113.111 73.4438 113.426C73.4337 113.471 73.4236 113.517 73.414 113.562C73.345 113.874 73.277 114.185 73.2099 114.496C72.8827 116.018 76.8775 115.405 77.175 114.016C77.2746 113.554 77.3738 113.093 77.4725 112.632C77.4999 112.503 77.5267 112.375 77.5534 112.247C77.6288 111.885 77.7038 111.524 77.7784 111.162C77.8016 111.05 77.8248 110.939 77.8474 110.827C77.9446 110.354 78.0404 109.88 78.1348 109.407C78.1348 109.402 78.1348 109.397 78.1348 109.392C78.2276 108.926 78.3192 108.461 78.4097 107.996C78.4275 107.905 78.4448 107.817 78.462 107.723C78.5453 107.295 78.627 106.867 78.7072 106.439L78.7339 106.3C78.9172 105.323 79.0945 104.345 79.2659 103.367C79.2772 103.307 79.2879 103.241 79.2986 103.178C79.4374 102.385 79.5719 101.59 79.702 100.793C79.7056 100.773 79.7085 100.754 79.7115 100.733C79.8158 100.098 79.917 99.4621 80.015 98.8243C80.0209 98.7826 80.0275 98.7404 80.034 98.6987C80.076 98.4234 80.1179 98.1474 80.1595 97.8705C80.178 97.7473 80.1964 97.6236 80.2143 97.5004C80.2452 97.2918 80.276 97.0827 80.3065 96.8733C80.3569 96.525 80.4065 96.1763 80.4553 95.8273C80.8432 93.0462 81.9392 90.4568 82.84 87.7995C82.8906 87.6502 82.9394 87.502 82.9876 87.3545C83.0031 87.3069 83.0185 87.2587 83.0334 87.2111C83.0663 87.1087 83.0984 87.0068 83.1298 86.9052L83.178 86.7493C83.2177 86.6208 83.2557 86.4929 83.2922 86.3656C83.3154 86.2876 83.3369 86.2097 83.3595 86.1317L83.4065 85.9633C83.4314 85.8741 83.4564 85.7848 83.4802 85.695L83.5011 85.6188C83.557 85.4086 83.6111 85.199 83.6635 84.9899C83.8956 84.0552 84.086 83.1258 84.2555 82.1655C84.2621 82.1303 84.268 82.0952 84.274 82.0601C84.2906 81.9667 84.3067 81.8727 84.3228 81.7781C84.3317 81.7257 84.3406 81.6728 84.3489 81.6198C84.3672 81.5104 84.3854 81.4003 84.4037 81.2896C84.4203 81.1837 84.4376 81.0784 84.4543 80.9719C84.4644 80.9082 84.4739 80.844 84.484 80.7797L84.5286 80.4869C84.537 80.4328 84.5453 80.3787 84.553 80.3245C84.5756 80.1722 84.5983 80.0193 84.6209 79.864C84.6459 79.6902 84.6716 79.5165 84.6982 79.3428L84.7107 79.2601C84.7595 78.9407 84.8103 78.6216 84.863 78.3027C84.866 78.2866 84.869 78.2706 84.8714 78.2545C84.8975 78.0958 84.9239 77.9392 84.9505 77.7845V77.7803C84.9862 77.572 85.0229 77.3638 85.0606 77.1555C85.0695 77.1044 85.0784 77.0538 85.0879 77.0026C85.1195 76.8277 85.1516 76.6522 85.1843 76.4772L85.204 76.3743C85.2873 75.9312 85.3731 75.4888 85.4616 75.0469C85.5354 74.6784 85.6105 74.3106 85.6871 73.9437V73.936C85.7625 73.5723 85.8394 73.2093 85.918 72.8471L85.9227 72.8251C86.0001 72.4681 86.0794 72.1099 86.1607 71.7506C86.1607 71.7404 86.1649 71.7303 86.1673 71.7202C86.2466 71.3573 86.3273 70.9943 86.4094 70.6314C86.5427 70.0364 86.6768 69.4414 86.8116 68.8464C87.0056 67.986 87.198 67.1242 87.3888 66.2611C87.3971 66.2224 87.4055 66.1843 87.4144 66.1457C87.4715 65.8831 87.5284 65.6201 87.5851 65.3567C87.5953 65.3097 87.606 65.2627 87.6161 65.2151C87.6728 64.9517 87.7287 64.6875 87.7839 64.4225C87.7916 64.3845 87.7999 64.3464 87.8077 64.3083C87.866 64.0306 87.9233 63.753 87.9796 63.4753C87.9975 63.3878 88.0159 63.2968 88.0391 63.2093C88.0391 63.204 88.0391 63.1986 88.0391 63.1933C88.0582 63.1076 88.0778 63.0207 88.0986 62.9332C88.1248 62.8196 88.1528 62.7048 88.1813 62.5887C88.1813 62.5774 88.1867 62.5661 88.1897 62.5554C88.2492 62.321 88.3087 62.0794 88.3741 61.8414L88.3848 61.8022C88.4164 61.6832 88.4479 61.5642 88.4806 61.4452C88.533 61.2512 88.5863 61.0552 88.6407 60.8573C88.8001 60.2718 88.962 59.6732 89.106 59.0723V59.0687C89.1595 58.8462 89.2101 58.6241 89.2577 58.4023C89.2577 58.388 89.2642 58.3732 89.2672 58.3589C89.2809 58.2946 89.294 58.2298 89.3077 58.1655L89.3184 58.112C89.3315 58.0459 89.3446 57.9799 89.3571 57.9138C89.3571 57.9031 89.3612 57.8924 89.363 57.8823C89.4344 57.5027 89.4933 57.1266 89.535 56.7577V56.7536C89.5774 56.3878 89.599 56.0199 89.5998 55.6516C89.5963 55.4834 89.5891 55.3198 89.5784 55.1608ZM31.3481 53.2062C30.9804 53.7964 30.3039 53.8321 29.7726 54.129C29.3007 54.3896 28.8979 54.7693 28.4892 55.1239C28.4474 55.1599 28.4118 55.2025 28.3838 55.25C27.5258 53.5749 26.6645 51.9013 25.7998 50.2294C26.1964 50.4365 26.5913 50.6441 26.9844 50.8524C26.9647 50.9863 26.9583 51.1218 26.9654 51.257C27.3087 51.3914 27.574 51.376 27.7984 51.2849C28.986 51.9156 30.1702 52.5537 31.3511 53.199C31.3511 53.199 31.3493 53.2038 31.3481 53.2062Z" fill="#5CFFE4"/>
<path d="M25.9865 23.0658C24.8441 21.5902 22.4165 19.19 20.5631 18.7854C18.8144 18.404 15.0028 18.476 13.2874 19.2293C12.2831 19.6696 11.3596 20.4889 10.4909 21.3808C8.62321 17.6846 6.66685 13.9826 4.44572 10.3293C3.60498 8.94826 -0.205992 10.3525 0.801938 12.0089C5.79994 20.2307 9.09683 27.9222 13.5647 36.4367C14.3049 37.8474 18.1164 36.4872 17.2085 34.7564C15.364 31.237 13.6176 27.6479 11.8261 24.0416L14.8011 21.2029C15.9721 21.2416 17.1859 21.2898 18.2521 21.0666L18.3408 21.0446C18.5817 21.6188 19.9532 22.497 20.3983 22.8992C22.6515 24.9317 23.4661 26.9738 24.8965 29.9143C25.5623 31.2828 29.4304 30.0285 28.858 28.8522C27.9583 27.0047 27.2402 24.6872 25.9847 23.0658" fill="#C58FFF"/>
<path d="M37.88 23.9077C35.8843 19.7195 33.8114 15.6318 31.6134 11.5477C31.113 10.6183 27.3592 12.0654 27.6525 12.6092C29.854 16.6927 31.9258 20.7809 33.9214 24.9697C34.3582 25.8866 38.1721 24.5164 37.8823 23.9077" fill="#C58FFF"/>
<path d="M24.6359 7.3778C24.7073 7.88533 25.3214 8.2108 25.8854 8.21616H25.9449C26.9487 8.22627 29.2769 7.54023 28.5076 6.14079C27.8269 4.89764 27.1458 3.65408 26.4644 2.41014C26.2972 2.10549 25.6552 1.99006 25.3701 1.96924C24.8359 1.94197 24.3029 2.04189 23.8148 2.26079C23.0883 2.58983 22.363 3.23064 22.8075 4.04579C23.4168 5.15646 24.0256 6.26713 24.6341 7.3778" fill="#C58FFF"/>
<path d="M79.157 58.6077C79.0655 57.9787 78.8792 57.3672 78.6043 56.7941C78.2568 56.0575 77.8867 55.3292 77.4898 54.617C77.1293 53.2759 76.279 52.1823 75.3109 51.216C74.8879 50.7935 74.447 50.3884 74.0216 49.9665C73.4605 49.412 72.919 48.8294 72.23 48.4248C71.5963 48.0524 70.8728 47.8233 70.1386 47.7025C69.9916 47.6145 69.8411 47.5312 69.69 47.4538C69.452 47.3348 69.214 47.2414 68.9688 47.1432C68.7228 47.0383 68.4714 46.9468 68.2156 46.8689C67.6931 46.7243 67.1446 46.6518 66.6091 46.5827C66.3116 46.5441 66.0069 46.5232 65.7052 46.5113C65.0894 46.4869 64.473 46.503 63.8572 46.5113C63.2414 46.5197 62.644 46.484 62.0371 46.4887C61.1523 46.4953 60.2699 46.5125 59.3977 46.6672C58.5432 46.8189 57.7037 46.9736 56.8814 47.2503C56.0596 47.5176 55.252 47.8264 54.4615 48.1755C53.9129 48.4243 53.3733 48.6932 52.836 48.9651C52.0363 49.3697 51.2295 49.7654 50.456 50.2188C49.7468 50.6353 49.1113 51.1589 48.4818 51.6843C47.381 52.6071 46.4558 53.7186 45.596 54.8669C45.239 55.3378 44.9072 55.8253 44.6006 56.3294C44.3465 56.743 44.0913 57.1624 43.8991 57.6122C43.457 58.6448 43.1502 59.7301 42.9864 60.8413C42.8253 61.942 42.7655 63.0552 42.8079 64.1668C42.8164 64.7116 42.8612 65.2552 42.9417 65.7941C43.0123 66.2023 43.1213 66.6029 43.2672 66.9906C43.4501 67.485 43.661 67.9686 43.8991 68.4389C44.2359 69.1112 44.5964 69.7752 44.9963 70.4125C45.5913 71.3645 46.2773 72.2784 47.0925 73.0543C47.628 73.563 48.2277 73.9932 48.8144 74.4377C49.3499 74.8423 49.8765 75.2546 50.4155 75.6515C50.9546 76.0483 51.4865 76.425 52.0559 76.7593C52.3275 76.9252 52.6082 77.0756 52.8967 77.2098C53.3691 77.4228 53.8665 77.6316 54.3782 77.7369C54.9203 77.8551 55.4708 77.9307 56.0246 77.963C56.3316 77.9773 56.6392 77.9743 56.9463 77.9702C57.5895 77.9624 58.2291 77.9737 58.8717 78.0053C59.5262 78.0368 60.1765 78.0749 60.8298 78.0785C61.7449 78.0832 62.6844 78.0844 63.5906 77.9255C64.1928 77.8196 64.7997 77.7221 65.3851 77.5418C65.9873 77.3573 66.5835 77.1443 67.1666 76.9057C67.7794 76.6552 68.3732 76.3601 68.9629 76.0602C69.5388 75.7675 70.1112 75.4652 70.6997 75.2004C71.2209 74.9624 71.7189 74.6882 72.2187 74.4067C72.4538 74.2748 72.6814 74.13 72.9006 73.973C73.5326 73.532 74.1199 73.0302 74.6541 72.4748C75.1444 71.9437 75.5949 71.3771 76.0017 70.7796C76.6039 69.9073 77.0924 68.9637 77.5797 68.0247C77.8177 67.5714 78.0503 67.118 78.2937 66.6693C78.363 66.5788 78.4266 66.484 78.4841 66.3855C78.5096 66.3401 78.5325 66.2932 78.5525 66.2451C78.6484 66.032 78.7317 65.8135 78.8018 65.5906C78.8743 65.3481 78.9046 65.0949 78.8916 64.8421C78.9976 63.5819 79.1975 62.3306 79.2486 61.0668C79.2826 60.2511 79.273 59.4175 79.157 58.6077Z" fill="black"/>
<path d="M75.2514 57.922C74.8522 57.0634 74.4654 56.3 74.0578 55.6015C74.0131 55.4161 73.9591 55.233 73.896 55.0529C73.3468 53.5398 71.5654 52.1779 70.4658 51.0105C69.5906 50.0799 68.8296 49.8306 67.8776 49.7925C67.3641 49.4516 66.8375 49.1469 66.3014 48.9786C64.8502 48.521 62.8927 48.7608 61.3998 48.6918C58.1101 48.5389 56.0585 49.7503 53.1174 51.2277C50.7303 52.426 48.5752 55.11 47.3215 57.4561C46.3291 59.3131 45.9328 63.59 46.5587 65.6076C47.2364 67.7853 49.125 70.8704 50.982 72.2324C52.3796 73.257 53.9141 74.5683 55.4641 75.3412C56.5875 75.9011 57.6543 75.7732 58.9151 75.7798C60.6156 75.7887 62.6208 76.0773 64.2998 75.6977C66.0188 75.3097 67.7562 74.2 69.3573 73.4854C72.4989 72.0818 73.4866 69.3139 75.089 66.3859C75.2322 66.229 75.3283 66.035 75.3662 65.826C75.4164 65.6951 75.4312 65.5533 75.4091 65.4149C75.5876 62.995 76.2611 60.095 75.2514 57.922ZM68.278 71.5344C68.2679 71.4018 68.3375 71.3018 68.4452 71.2215C68.3607 71.3327 68.2715 71.4464 68.278 71.5344ZM69.7137 68.9807C69.3907 69.5543 68.7475 70.3355 68.5832 70.9769C67.37 71.1209 65.5125 72.4186 64.473 72.8809C64.3772 72.9238 64.1428 73.0196 63.9065 73.1189C63.5751 73.1427 63.1783 73.1784 62.9623 73.1784C61.4665 73.1707 59.9177 73.2819 58.4266 73.16C58.3802 73.1136 58.3254 73.0606 58.2523 72.9946C57.612 72.421 56.7701 71.967 56.065 71.4779C55.4105 71.0245 54.6918 70.6009 54.0754 70.0975C53.694 69.7875 53.4155 69.543 53.4762 69.6168C52.5004 68.4392 51.8429 66.7804 51.0807 65.4571C50.8832 65.1156 50.5958 64.7431 50.4006 64.3682C50.4822 64.3998 50.4197 63.7042 50.4667 63.3877C50.7154 61.7157 50.6535 59.9962 50.8517 58.3147C50.871 58.2067 50.8742 58.0964 50.8612 57.9875C51.173 57.5061 51.6061 57.0569 51.9465 56.6142L53.5173 54.5716C53.7553 54.2592 54.6882 53.3066 54.4324 53.3619C55.4058 52.8056 56.547 52.3915 57.5192 51.9143C57.9072 51.7245 58.4986 51.5353 58.9002 51.2788C59.3525 51.3602 59.8097 51.4115 60.2687 51.4323C59.2013 52.6533 57.7459 54.4454 57.2045 55.8532C56.6172 57.3788 57.3919 59.6124 57.6061 61.2082C57.8727 63.1901 58.5932 63.7399 59.9956 65.2001C61.2517 66.5061 62.0305 67.8079 63.9369 67.7949C65.8004 67.783 69.2491 68.0126 70.7639 66.7375C70.9168 66.6078 71.0614 66.4615 71.2072 66.3133L69.7137 68.9807Z" fill="#C58FFF"/>
</svg>
