<svg xmlns="http://www.w3.org/2000/svg" xmlns:xlink="http://www.w3.org/1999/xlink" width="106" height="78" viewBox="0 0 106 78">
    <defs>
        <path id="uy18fuyjta" d="M1.494 1.351L4.767 1.351 4.767 4 1.494 4z"/>
    </defs>
    <g fill="none" fill-rule="evenodd">
        <g>
            <g>
                <g>
                    <g>
                        <path fill="#FFF" d="M125.133 1.774c-2.04 0-2.352 3.066-.3 3.066 2.038 0 2.352-3.066.3-3.066" transform="translate(-603 -2918) translate(83 1964) translate(125 714) rotate(152 222.26 193.225)"/>
                        <g transform="translate(-603 -2918) translate(83 1964) translate(125 714) rotate(152 222.26 193.225) translate(104.58 .948)">
                            <mask id="xcpz013y7b" fill="#fff">
                                <use xlink:href="#uy18fuyjta"/>
                            </mask>
                            <path fill="#FFF" d="M2.321 3.833c.702.17 1.378.334 1.988-.172.694-.576.548-1.496-.096-2.028-.494-.406-1.102-.294-1.672-.158-.552.134-.986.52-1.042 1.092-.05.502.28 1.136.822 1.266" mask="url(#xcpz013y7b)"/>
                        </g>
                        <path fill="#FFF" d="M78.457 14.042c-1.624 0-1.874 2.442-.24 2.442 1.626 0 1.874-2.442.24-2.442M64.31 22.26c.148.015.296.027.444.043-.298-.2-.596-.404-.894-.604.432 1.264 2.408.934 2.532-.336.144-1.488-2.118-1.912-2.57-.49l.844-.68c-.146.018-.294.026-.44.04-1.214.108-1.078 1.924.084 2.028M92.681 7.653c-1.688 0-1.946 2.536-.25 2.536 1.688 0 1.948-2.536.25-2.536M50.791 24.934c-2.04 0-2.352 3.066-.3 3.066 2.038 0 2.352-3.066.3-3.066" transform="translate(-603 -2918) translate(83 1964) translate(125 714) rotate(152 222.26 193.225)"/>
                        <g fill="#FFF">
                            <path d="M.863 3.064c.7.17 1.378.334 1.988-.172.694-.576.548-1.496-.098-2.028C2.26.458 1.651.57 1.083.706.53.84.095 1.226.04 1.798c-.048.502.28 1.136.824 1.266" transform="translate(-603 -2918) translate(83 1964) translate(125 714) rotate(152 222.26 193.225) translate(34 26)"/>
                        </g>
                        <path fill="#FFF" d="M19.53 24.497c-1.623 0-1.873 2.442-.24 2.442 1.627 0 1.875-2.442.24-2.442M1.43 21.496c.148.014.296.026.444.042-.298-.2-.596-.404-.894-.604.432 1.264 2.408.934 2.532-.336.144-1.488-2.118-1.912-2.57-.49l.844-.68c-.146.018-.294.026-.44.04-1.214.108-1.078 1.924.084 2.028" transform="translate(-603 -2918) translate(83 1964) translate(125 714) rotate(152 222.26 193.225)"/>
                    </g>
                </g>
            </g>
        </g>
    </g>
</svg>
