<svg width="80" height="80" viewBox="0 0 80 80" fill="none" xmlns="http://www.w3.org/2000/svg">
<mask id="path-1-outside-1_120_11160" maskUnits="userSpaceOnUse" x="21.2334" y="34.1672" width="50" height="40" fill="black">
<rect fill="white" x="21.2334" y="34.1672" width="50" height="40"/>
<path d="M69.889 63.6196C69.9006 63.5916 69.9029 63.5606 69.8957 63.5311C69.8885 63.5016 69.8722 63.4752 69.849 63.4556C68.8942 62.03 67.9986 60.8304 66.809 59.5972C65.753 58.5008 64.6686 57.4336 63.6298 56.3208C61.367 53.898 58.861 51.5968 56.3634 49.4144C55.1382 48.3441 53.8798 47.3789 52.6642 46.3061C51.5502 45.3233 50.7442 44.0701 49.6522 43.0661C47.281 40.8865 45.2654 38.2749 42.6098 36.4345C41.349 35.5609 39.8498 35.0213 38.2578 35.2021C36.3562 35.4177 34.6978 36.3337 33.0306 37.1825C32.9202 37.2385 32.6858 37.4225 32.8306 37.5697C33.0474 37.7869 32.945 37.7537 32.6706 38.1745C32.3666 38.6413 31.9962 39.1053 31.741 39.6005C31.4678 40.1297 31.3834 40.7245 31.279 41.3161C31.23 41.3252 31.1825 41.3409 31.1378 41.3629C29.6454 42.1829 28.0414 42.8973 26.5422 43.7045C25.9962 43.9985 25.5746 44.6093 25.551 44.6469C24.435 46.4335 23.3382 48.2291 22.2606 50.0336C22.199 50.1364 22.2506 50.2248 22.3302 50.2924C26.4566 53.8024 30.6502 57.2344 34.8714 60.6288C34.8714 60.7604 35.0382 60.7964 35.2206 60.7736C35.3021 60.7664 35.3819 60.7458 35.4566 60.7124C35.5117 60.6913 35.563 60.6614 35.6086 60.624C37.9586 59.0488 40.2218 57.3628 42.5642 55.7772C43.8442 56.714 44.8806 57.7576 45.8986 59.0044C46.8726 60.1972 47.5906 61.5244 48.6338 62.6688C49.6554 63.7888 50.939 64.6984 51.9178 65.8C52.483 66.4364 52.9546 67.1884 53.5734 67.7716C54.2426 68.4016 55.035 68.9244 55.7474 69.5056C57.2046 70.694 58.6086 71.76 60.181 72.7936C60.341 72.8992 60.617 72.8452 60.7602 72.7356C61.6618 72.0452 62.4834 71.3532 63.4054 70.8348C64.4654 70.2392 65.1538 69.8348 65.9506 68.9384C66.729 68.062 67.5222 67.1992 68.3018 66.3236C68.9774 65.5636 69.3738 64.606 69.847 63.7096C69.8676 63.6832 69.8819 63.6524 69.889 63.6196ZM44.5598 46.1033L43.2798 46.8289C43.065 46.9489 42.8438 47.1117 42.6154 47.2057C42.5782 47.22 42.5419 47.2364 42.5066 47.2549C42.3873 47.272 42.2671 47.2827 42.1466 47.2869L43.1466 44.4685L45.6542 43.5693C45.6418 43.6717 45.6298 43.7737 45.6142 43.8817C45.4894 44.6401 44.9642 45.3953 44.5598 46.1033ZM40.375 47.2845C40.3398 47.2417 40.0626 47.1209 39.9994 47.0761C39.1194 46.4533 38.3158 46.1133 37.545 45.3493C36.873 44.6837 36.1606 44.0445 35.5122 43.3565C35.1498 42.9721 35.2322 43.1165 35.3634 42.4961C35.4766 41.9617 35.5354 41.3533 35.7146 40.8369C35.9578 40.1357 36.6382 39.1297 37.179 38.5705C37.3862 38.3565 38.5642 37.5305 39.2214 37.2025C39.1054 37.2641 39.357 37.1805 39.4214 37.1625C39.7138 37.0737 40.0214 37.0173 40.3182 36.9453L41.4526 36.6705C42.8154 38.0445 44.2474 39.2425 45.197 40.9397C45.5902 41.6429 45.7346 42.2889 45.6958 43.0933L44.0678 43.6769C43.6302 43.8337 42.8122 43.9497 42.4678 44.2933C42.1378 44.6225 42.0254 45.4365 41.875 45.8597C41.7073 46.3325 41.5394 46.8053 41.3714 47.2781C41.1274 47.2677 40.8842 47.2585 40.6478 47.2705C40.5634 47.2729 40.4666 47.2825 40.373 47.2845H40.375ZM28.9686 42.9717C29.7162 42.5649 30.461 42.1529 31.2066 41.7425C30.987 43.0301 31.3234 44.3709 31.8662 45.5669C33.1298 48.3501 35.3862 50.2728 37.6406 52.2532L37.6358 52.2564C37.331 52.4807 36.9663 52.6091 36.5882 52.6252C36.331 52.6364 36.0514 52.6504 35.8534 52.6568C35.8175 52.6552 35.7815 52.6562 35.7458 52.66C35.613 52.664 35.511 52.6672 35.4678 52.6656C34.2438 52.6204 34.145 52.422 33.1218 51.6028C31.6686 50.4396 30.221 49.2705 28.7618 48.1161C28.0642 47.5649 27.2394 47.0549 26.631 46.4153C26.1998 45.9601 26.3278 45.9725 26.3598 45.1305C26.3698 44.8665 26.3998 44.6033 26.423 44.3405C27.0398 43.7425 28.2098 43.3849 28.9686 42.9717ZM36.6534 53.096C37.2534 53.0868 37.5838 52.8752 37.9826 52.5548L38.233 52.7764C39.4462 53.8564 40.7262 54.5192 42.0662 55.426C39.9254 56.874 37.8486 58.4024 35.715 59.8584C35.835 57.6112 35.9802 55.3672 36.067 53.118C36.2798 53.108 36.4798 53.0988 36.6534 53.096ZM24.9846 51.5672C24.4931 51.1515 24.0027 50.7344 23.5134 50.316C23.441 50.2544 23.2374 50.1276 23.105 50.0104C23.129 49.9516 23.161 49.8432 23.2378 49.7612C23.8322 49.1293 24.2246 48.0909 24.6802 47.3465C24.9518 46.9021 25.2282 46.4601 25.5054 46.0189C25.541 46.3321 25.6962 46.5669 26.135 46.9181C27.3598 47.8984 28.5946 48.8657 29.8182 49.8469C30.4606 50.3616 31.0982 50.8816 31.741 51.3972C32.3238 51.8648 33.0178 52.69 33.7094 52.9648C34.1094 53.1248 34.6878 53.1532 35.2626 53.1452C35.1798 55.336 35.0398 57.52 34.9198 59.7104C32.2946 57.5904 29.6894 55.4524 27.075 53.3236C26.3702 52.7492 25.6798 52.1552 24.9846 51.5672ZM67.5522 66.2104C66.7629 67.0808 65.9775 67.9548 65.1962 68.8324C64.8226 69.2532 64.6118 69.5124 64.4174 69.6432C63.8426 70.0284 63.1902 70.3104 62.5966 70.6668C61.871 71.1024 61.2102 71.6456 60.5422 72.1696C59.279 71.3296 58.0962 70.492 56.9242 69.5164C55.8042 68.5856 54.5834 67.7768 53.6686 66.6708C52.6166 65.3988 51.4686 64.484 50.293 63.3336C49.133 62.1952 48.1962 60.9236 47.2974 59.562C46.5746 58.4672 45.7058 57.3328 44.6778 56.5156C43.265 55.3924 41.7954 54.5792 40.3142 53.5696C39.1454 52.7732 38.0498 51.6068 36.9734 50.6284C35.8834 49.6376 34.567 48.5853 33.721 47.3813C32.8486 46.1413 31.8986 43.9737 31.863 42.4389C31.8198 40.5649 32.853 39.1453 33.8198 37.6633C33.8546 37.6093 33.8566 37.5057 33.8082 37.4573L33.763 37.4117C34.395 37.0757 35.027 36.7173 35.683 36.4417C36.2562 36.2017 37.2294 36.0281 37.963 35.8209C37.9894 35.8133 38.223 35.7669 38.3198 35.7385C38.393 35.7521 38.5302 35.7677 38.5598 35.7721C39.0774 35.847 39.5949 35.9227 40.1122 35.9993C40.5038 36.0565 40.7242 36.1029 40.9158 36.1837C40.5602 36.2893 40.2006 36.4333 39.927 36.4997C37.8218 37.0097 35.7814 38.6265 34.9454 40.6745C34.6994 41.2777 34.593 42.1477 34.4978 42.7897C34.4122 43.3697 34.399 43.3437 34.8466 43.7797C35.7526 44.6625 36.6366 45.7509 37.637 46.5177C38.7246 47.3517 39.7218 47.8201 41.047 47.8109C41.6634 47.8061 42.3174 47.8973 42.8918 47.6741C43.543 47.4209 44.1694 46.9689 44.7818 46.6061C44.8174 46.6014 44.8527 46.5943 44.8874 46.5849C44.9758 46.5664 45.0591 46.5284 45.131 46.4737C45.1869 46.4385 45.2272 46.3833 45.2434 46.3193C45.8522 45.1993 46.419 44.3933 46.4394 43.1165C46.4474 42.6001 46.5618 41.9565 46.4274 41.4617C46.345 41.1589 46.165 40.8081 45.961 40.4673C46.9022 41.4381 47.8334 42.4245 48.8262 43.3369C49.8262 44.2569 50.5662 45.4221 51.5678 46.3397C52.833 47.4997 54.1806 48.5396 55.4846 49.6496C57.7222 51.5576 60.0474 53.652 62.0766 55.7992C63.273 57.0652 64.4826 58.3116 65.6974 59.5592C67.0002 60.898 68.0062 62.172 69.0438 63.7128C68.5874 64.5852 68.195 65.502 67.5522 66.2104Z"/>
</mask>
<path d="M69.889 63.6196C69.9006 63.5916 69.9029 63.5606 69.8957 63.5311C69.8885 63.5016 69.8722 63.4752 69.849 63.4556C68.8942 62.03 67.9986 60.8304 66.809 59.5972C65.753 58.5008 64.6686 57.4336 63.6298 56.3208C61.367 53.898 58.861 51.5968 56.3634 49.4144C55.1382 48.3441 53.8798 47.3789 52.6642 46.3061C51.5502 45.3233 50.7442 44.0701 49.6522 43.0661C47.281 40.8865 45.2654 38.2749 42.6098 36.4345C41.349 35.5609 39.8498 35.0213 38.2578 35.2021C36.3562 35.4177 34.6978 36.3337 33.0306 37.1825C32.9202 37.2385 32.6858 37.4225 32.8306 37.5697C33.0474 37.7869 32.945 37.7537 32.6706 38.1745C32.3666 38.6413 31.9962 39.1053 31.741 39.6005C31.4678 40.1297 31.3834 40.7245 31.279 41.3161C31.23 41.3252 31.1825 41.3409 31.1378 41.3629C29.6454 42.1829 28.0414 42.8973 26.5422 43.7045C25.9962 43.9985 25.5746 44.6093 25.551 44.6469C24.435 46.4335 23.3382 48.2291 22.2606 50.0336C22.199 50.1364 22.2506 50.2248 22.3302 50.2924C26.4566 53.8024 30.6502 57.2344 34.8714 60.6288C34.8714 60.7604 35.0382 60.7964 35.2206 60.7736C35.3021 60.7664 35.3819 60.7458 35.4566 60.7124C35.5117 60.6913 35.563 60.6614 35.6086 60.624C37.9586 59.0488 40.2218 57.3628 42.5642 55.7772C43.8442 56.714 44.8806 57.7576 45.8986 59.0044C46.8726 60.1972 47.5906 61.5244 48.6338 62.6688C49.6554 63.7888 50.939 64.6984 51.9178 65.8C52.483 66.4364 52.9546 67.1884 53.5734 67.7716C54.2426 68.4016 55.035 68.9244 55.7474 69.5056C57.2046 70.694 58.6086 71.76 60.181 72.7936C60.341 72.8992 60.617 72.8452 60.7602 72.7356C61.6618 72.0452 62.4834 71.3532 63.4054 70.8348C64.4654 70.2392 65.1538 69.8348 65.9506 68.9384C66.729 68.062 67.5222 67.1992 68.3018 66.3236C68.9774 65.5636 69.3738 64.606 69.847 63.7096C69.8676 63.6832 69.8819 63.6524 69.889 63.6196ZM44.5598 46.1033L43.2798 46.8289C43.065 46.9489 42.8438 47.1117 42.6154 47.2057C42.5782 47.22 42.5419 47.2364 42.5066 47.2549C42.3873 47.272 42.2671 47.2827 42.1466 47.2869L43.1466 44.4685L45.6542 43.5693C45.6418 43.6717 45.6298 43.7737 45.6142 43.8817C45.4894 44.6401 44.9642 45.3953 44.5598 46.1033ZM40.375 47.2845C40.3398 47.2417 40.0626 47.1209 39.9994 47.0761C39.1194 46.4533 38.3158 46.1133 37.545 45.3493C36.873 44.6837 36.1606 44.0445 35.5122 43.3565C35.1498 42.9721 35.2322 43.1165 35.3634 42.4961C35.4766 41.9617 35.5354 41.3533 35.7146 40.8369C35.9578 40.1357 36.6382 39.1297 37.179 38.5705C37.3862 38.3565 38.5642 37.5305 39.2214 37.2025C39.1054 37.2641 39.357 37.1805 39.4214 37.1625C39.7138 37.0737 40.0214 37.0173 40.3182 36.9453L41.4526 36.6705C42.8154 38.0445 44.2474 39.2425 45.197 40.9397C45.5902 41.6429 45.7346 42.2889 45.6958 43.0933L44.0678 43.6769C43.6302 43.8337 42.8122 43.9497 42.4678 44.2933C42.1378 44.6225 42.0254 45.4365 41.875 45.8597C41.7073 46.3325 41.5394 46.8053 41.3714 47.2781C41.1274 47.2677 40.8842 47.2585 40.6478 47.2705C40.5634 47.2729 40.4666 47.2825 40.373 47.2845H40.375ZM28.9686 42.9717C29.7162 42.5649 30.461 42.1529 31.2066 41.7425C30.987 43.0301 31.3234 44.3709 31.8662 45.5669C33.1298 48.3501 35.3862 50.2728 37.6406 52.2532L37.6358 52.2564C37.331 52.4807 36.9663 52.6091 36.5882 52.6252C36.331 52.6364 36.0514 52.6504 35.8534 52.6568C35.8175 52.6552 35.7815 52.6562 35.7458 52.66C35.613 52.664 35.511 52.6672 35.4678 52.6656C34.2438 52.6204 34.145 52.422 33.1218 51.6028C31.6686 50.4396 30.221 49.2705 28.7618 48.1161C28.0642 47.5649 27.2394 47.0549 26.631 46.4153C26.1998 45.9601 26.3278 45.9725 26.3598 45.1305C26.3698 44.8665 26.3998 44.6033 26.423 44.3405C27.0398 43.7425 28.2098 43.3849 28.9686 42.9717ZM36.6534 53.096C37.2534 53.0868 37.5838 52.8752 37.9826 52.5548L38.233 52.7764C39.4462 53.8564 40.7262 54.5192 42.0662 55.426C39.9254 56.874 37.8486 58.4024 35.715 59.8584C35.835 57.6112 35.9802 55.3672 36.067 53.118C36.2798 53.108 36.4798 53.0988 36.6534 53.096ZM24.9846 51.5672C24.4931 51.1515 24.0027 50.7344 23.5134 50.316C23.441 50.2544 23.2374 50.1276 23.105 50.0104C23.129 49.9516 23.161 49.8432 23.2378 49.7612C23.8322 49.1293 24.2246 48.0909 24.6802 47.3465C24.9518 46.9021 25.2282 46.4601 25.5054 46.0189C25.541 46.3321 25.6962 46.5669 26.135 46.9181C27.3598 47.8984 28.5946 48.8657 29.8182 49.8469C30.4606 50.3616 31.0982 50.8816 31.741 51.3972C32.3238 51.8648 33.0178 52.69 33.7094 52.9648C34.1094 53.1248 34.6878 53.1532 35.2626 53.1452C35.1798 55.336 35.0398 57.52 34.9198 59.7104C32.2946 57.5904 29.6894 55.4524 27.075 53.3236C26.3702 52.7492 25.6798 52.1552 24.9846 51.5672ZM67.5522 66.2104C66.7629 67.0808 65.9775 67.9548 65.1962 68.8324C64.8226 69.2532 64.6118 69.5124 64.4174 69.6432C63.8426 70.0284 63.1902 70.3104 62.5966 70.6668C61.871 71.1024 61.2102 71.6456 60.5422 72.1696C59.279 71.3296 58.0962 70.492 56.9242 69.5164C55.8042 68.5856 54.5834 67.7768 53.6686 66.6708C52.6166 65.3988 51.4686 64.484 50.293 63.3336C49.133 62.1952 48.1962 60.9236 47.2974 59.562C46.5746 58.4672 45.7058 57.3328 44.6778 56.5156C43.265 55.3924 41.7954 54.5792 40.3142 53.5696C39.1454 52.7732 38.0498 51.6068 36.9734 50.6284C35.8834 49.6376 34.567 48.5853 33.721 47.3813C32.8486 46.1413 31.8986 43.9737 31.863 42.4389C31.8198 40.5649 32.853 39.1453 33.8198 37.6633C33.8546 37.6093 33.8566 37.5057 33.8082 37.4573L33.763 37.4117C34.395 37.0757 35.027 36.7173 35.683 36.4417C36.2562 36.2017 37.2294 36.0281 37.963 35.8209C37.9894 35.8133 38.223 35.7669 38.3198 35.7385C38.393 35.7521 38.5302 35.7677 38.5598 35.7721C39.0774 35.847 39.5949 35.9227 40.1122 35.9993C40.5038 36.0565 40.7242 36.1029 40.9158 36.1837C40.5602 36.2893 40.2006 36.4333 39.927 36.4997C37.8218 37.0097 35.7814 38.6265 34.9454 40.6745C34.6994 41.2777 34.593 42.1477 34.4978 42.7897C34.4122 43.3697 34.399 43.3437 34.8466 43.7797C35.7526 44.6625 36.6366 45.7509 37.637 46.5177C38.7246 47.3517 39.7218 47.8201 41.047 47.8109C41.6634 47.8061 42.3174 47.8973 42.8918 47.6741C43.543 47.4209 44.1694 46.9689 44.7818 46.6061C44.8174 46.6014 44.8527 46.5943 44.8874 46.5849C44.9758 46.5664 45.0591 46.5284 45.131 46.4737C45.1869 46.4385 45.2272 46.3833 45.2434 46.3193C45.8522 45.1993 46.419 44.3933 46.4394 43.1165C46.4474 42.6001 46.5618 41.9565 46.4274 41.4617C46.345 41.1589 46.165 40.8081 45.961 40.4673C46.9022 41.4381 47.8334 42.4245 48.8262 43.3369C49.8262 44.2569 50.5662 45.4221 51.5678 46.3397C52.833 47.4997 54.1806 48.5396 55.4846 49.6496C57.7222 51.5576 60.0474 53.652 62.0766 55.7992C63.273 57.0652 64.4826 58.3116 65.6974 59.5592C67.0002 60.898 68.0062 62.172 69.0438 63.7128C68.5874 64.5852 68.195 65.502 67.5522 66.2104Z" fill="#5CFFE4"/>
<path d="M69.889 63.6196C69.9006 63.5916 69.9029 63.5606 69.8957 63.5311C69.8885 63.5016 69.8722 63.4752 69.849 63.4556C68.8942 62.03 67.9986 60.8304 66.809 59.5972C65.753 58.5008 64.6686 57.4336 63.6298 56.3208C61.367 53.898 58.861 51.5968 56.3634 49.4144C55.1382 48.3441 53.8798 47.3789 52.6642 46.3061C51.5502 45.3233 50.7442 44.0701 49.6522 43.0661C47.281 40.8865 45.2654 38.2749 42.6098 36.4345C41.349 35.5609 39.8498 35.0213 38.2578 35.2021C36.3562 35.4177 34.6978 36.3337 33.0306 37.1825C32.9202 37.2385 32.6858 37.4225 32.8306 37.5697C33.0474 37.7869 32.945 37.7537 32.6706 38.1745C32.3666 38.6413 31.9962 39.1053 31.741 39.6005C31.4678 40.1297 31.3834 40.7245 31.279 41.3161C31.23 41.3252 31.1825 41.3409 31.1378 41.3629C29.6454 42.1829 28.0414 42.8973 26.5422 43.7045C25.9962 43.9985 25.5746 44.6093 25.551 44.6469C24.435 46.4335 23.3382 48.2291 22.2606 50.0336C22.199 50.1364 22.2506 50.2248 22.3302 50.2924C26.4566 53.8024 30.6502 57.2344 34.8714 60.6288C34.8714 60.7604 35.0382 60.7964 35.2206 60.7736C35.3021 60.7664 35.3819 60.7458 35.4566 60.7124C35.5117 60.6913 35.563 60.6614 35.6086 60.624C37.9586 59.0488 40.2218 57.3628 42.5642 55.7772C43.8442 56.714 44.8806 57.7576 45.8986 59.0044C46.8726 60.1972 47.5906 61.5244 48.6338 62.6688C49.6554 63.7888 50.939 64.6984 51.9178 65.8C52.483 66.4364 52.9546 67.1884 53.5734 67.7716C54.2426 68.4016 55.035 68.9244 55.7474 69.5056C57.2046 70.694 58.6086 71.76 60.181 72.7936C60.341 72.8992 60.617 72.8452 60.7602 72.7356C61.6618 72.0452 62.4834 71.3532 63.4054 70.8348C64.4654 70.2392 65.1538 69.8348 65.9506 68.9384C66.729 68.062 67.5222 67.1992 68.3018 66.3236C68.9774 65.5636 69.3738 64.606 69.847 63.7096C69.8676 63.6832 69.8819 63.6524 69.889 63.6196ZM44.5598 46.1033L43.2798 46.8289C43.065 46.9489 42.8438 47.1117 42.6154 47.2057C42.5782 47.22 42.5419 47.2364 42.5066 47.2549C42.3873 47.272 42.2671 47.2827 42.1466 47.2869L43.1466 44.4685L45.6542 43.5693C45.6418 43.6717 45.6298 43.7737 45.6142 43.8817C45.4894 44.6401 44.9642 45.3953 44.5598 46.1033ZM40.375 47.2845C40.3398 47.2417 40.0626 47.1209 39.9994 47.0761C39.1194 46.4533 38.3158 46.1133 37.545 45.3493C36.873 44.6837 36.1606 44.0445 35.5122 43.3565C35.1498 42.9721 35.2322 43.1165 35.3634 42.4961C35.4766 41.9617 35.5354 41.3533 35.7146 40.8369C35.9578 40.1357 36.6382 39.1297 37.179 38.5705C37.3862 38.3565 38.5642 37.5305 39.2214 37.2025C39.1054 37.2641 39.357 37.1805 39.4214 37.1625C39.7138 37.0737 40.0214 37.0173 40.3182 36.9453L41.4526 36.6705C42.8154 38.0445 44.2474 39.2425 45.197 40.9397C45.5902 41.6429 45.7346 42.2889 45.6958 43.0933L44.0678 43.6769C43.6302 43.8337 42.8122 43.9497 42.4678 44.2933C42.1378 44.6225 42.0254 45.4365 41.875 45.8597C41.7073 46.3325 41.5394 46.8053 41.3714 47.2781C41.1274 47.2677 40.8842 47.2585 40.6478 47.2705C40.5634 47.2729 40.4666 47.2825 40.373 47.2845H40.375ZM28.9686 42.9717C29.7162 42.5649 30.461 42.1529 31.2066 41.7425C30.987 43.0301 31.3234 44.3709 31.8662 45.5669C33.1298 48.3501 35.3862 50.2728 37.6406 52.2532L37.6358 52.2564C37.331 52.4807 36.9663 52.6091 36.5882 52.6252C36.331 52.6364 36.0514 52.6504 35.8534 52.6568C35.8175 52.6552 35.7815 52.6562 35.7458 52.66C35.613 52.664 35.511 52.6672 35.4678 52.6656C34.2438 52.6204 34.145 52.422 33.1218 51.6028C31.6686 50.4396 30.221 49.2705 28.7618 48.1161C28.0642 47.5649 27.2394 47.0549 26.631 46.4153C26.1998 45.9601 26.3278 45.9725 26.3598 45.1305C26.3698 44.8665 26.3998 44.6033 26.423 44.3405C27.0398 43.7425 28.2098 43.3849 28.9686 42.9717ZM36.6534 53.096C37.2534 53.0868 37.5838 52.8752 37.9826 52.5548L38.233 52.7764C39.4462 53.8564 40.7262 54.5192 42.0662 55.426C39.9254 56.874 37.8486 58.4024 35.715 59.8584C35.835 57.6112 35.9802 55.3672 36.067 53.118C36.2798 53.108 36.4798 53.0988 36.6534 53.096ZM24.9846 51.5672C24.4931 51.1515 24.0027 50.7344 23.5134 50.316C23.441 50.2544 23.2374 50.1276 23.105 50.0104C23.129 49.9516 23.161 49.8432 23.2378 49.7612C23.8322 49.1293 24.2246 48.0909 24.6802 47.3465C24.9518 46.9021 25.2282 46.4601 25.5054 46.0189C25.541 46.3321 25.6962 46.5669 26.135 46.9181C27.3598 47.8984 28.5946 48.8657 29.8182 49.8469C30.4606 50.3616 31.0982 50.8816 31.741 51.3972C32.3238 51.8648 33.0178 52.69 33.7094 52.9648C34.1094 53.1248 34.6878 53.1532 35.2626 53.1452C35.1798 55.336 35.0398 57.52 34.9198 59.7104C32.2946 57.5904 29.6894 55.4524 27.075 53.3236C26.3702 52.7492 25.6798 52.1552 24.9846 51.5672ZM67.5522 66.2104C66.7629 67.0808 65.9775 67.9548 65.1962 68.8324C64.8226 69.2532 64.6118 69.5124 64.4174 69.6432C63.8426 70.0284 63.1902 70.3104 62.5966 70.6668C61.871 71.1024 61.2102 71.6456 60.5422 72.1696C59.279 71.3296 58.0962 70.492 56.9242 69.5164C55.8042 68.5856 54.5834 67.7768 53.6686 66.6708C52.6166 65.3988 51.4686 64.484 50.293 63.3336C49.133 62.1952 48.1962 60.9236 47.2974 59.562C46.5746 58.4672 45.7058 57.3328 44.6778 56.5156C43.265 55.3924 41.7954 54.5792 40.3142 53.5696C39.1454 52.7732 38.0498 51.6068 36.9734 50.6284C35.8834 49.6376 34.567 48.5853 33.721 47.3813C32.8486 46.1413 31.8986 43.9737 31.863 42.4389C31.8198 40.5649 32.853 39.1453 33.8198 37.6633C33.8546 37.6093 33.8566 37.5057 33.8082 37.4573L33.763 37.4117C34.395 37.0757 35.027 36.7173 35.683 36.4417C36.2562 36.2017 37.2294 36.0281 37.963 35.8209C37.9894 35.8133 38.223 35.7669 38.3198 35.7385C38.393 35.7521 38.5302 35.7677 38.5598 35.7721C39.0774 35.847 39.5949 35.9227 40.1122 35.9993C40.5038 36.0565 40.7242 36.1029 40.9158 36.1837C40.5602 36.2893 40.2006 36.4333 39.927 36.4997C37.8218 37.0097 35.7814 38.6265 34.9454 40.6745C34.6994 41.2777 34.593 42.1477 34.4978 42.7897C34.4122 43.3697 34.399 43.3437 34.8466 43.7797C35.7526 44.6625 36.6366 45.7509 37.637 46.5177C38.7246 47.3517 39.7218 47.8201 41.047 47.8109C41.6634 47.8061 42.3174 47.8973 42.8918 47.6741C43.543 47.4209 44.1694 46.9689 44.7818 46.6061C44.8174 46.6014 44.8527 46.5943 44.8874 46.5849C44.9758 46.5664 45.0591 46.5284 45.131 46.4737C45.1869 46.4385 45.2272 46.3833 45.2434 46.3193C45.8522 45.1993 46.419 44.3933 46.4394 43.1165C46.4474 42.6001 46.5618 41.9565 46.4274 41.4617C46.345 41.1589 46.165 40.8081 45.961 40.4673C46.9022 41.4381 47.8334 42.4245 48.8262 43.3369C49.8262 44.2569 50.5662 45.4221 51.5678 46.3397C52.833 47.4997 54.1806 48.5396 55.4846 49.6496C57.7222 51.5576 60.0474 53.652 62.0766 55.7992C63.273 57.0652 64.4826 58.3116 65.6974 59.5592C67.0002 60.898 68.0062 62.172 69.0438 63.7128C68.5874 64.5852 68.195 65.502 67.5522 66.2104Z" stroke="#5CFFE4" stroke-width="0.8" mask="url(#path-1-outside-1_120_11160)"/>
<path d="M49.0342 48.2966L50.4597 47.5558L49.9015 47.2775L49.8094 47.1L49.8092 47.1001C49.8091 47.1002 49.809 47.1002 49.8088 47.1003L48.231 47.9196L48.2308 47.9197C48.1098 47.9827 47.9724 48.0415 47.8218 48.1061C47.7278 48.1464 47.6286 48.1889 47.525 48.236C47.271 48.3514 46.9995 48.4914 46.8066 48.6757L46.8065 48.6758C46.6145 48.8596 46.4702 49.1258 46.353 49.3742C46.2997 49.4871 46.2531 49.5933 46.2094 49.6929C46.1496 49.8293 46.0952 49.9535 46.0361 50.0662L46.0361 50.0662L45.2058 51.6495C45.2058 51.6496 45.2058 51.6497 45.2057 51.6497C45.2057 51.6498 45.2057 51.6498 45.2057 51.6498C45.1792 51.7003 45.1667 51.7719 45.1997 51.8439C45.2276 51.9048 45.2751 51.9363 45.3007 51.9504C45.3515 51.9783 45.4089 51.9876 45.4463 51.9919C45.5313 52.0017 45.6398 51.9982 45.7458 51.9852C45.8528 51.9722 45.9709 51.9479 46.0742 51.9095C46.1648 51.8758 46.2958 51.8129 46.3598 51.6909L46.3599 51.6909C46.6103 51.214 46.8604 50.737 47.1103 50.2599L47.1104 50.2599L47.6252 49.2761C47.6462 49.2367 47.7252 49.0865 47.7785 48.9713C47.8194 48.9478 47.8637 48.9204 47.9019 48.8967C47.9069 48.8937 47.9117 48.8906 47.9165 48.8877C47.9798 48.8484 48.028 48.8186 48.0526 48.806L48.0526 48.806L48.0537 48.8054L49.0341 48.2966L49.0342 48.2966Z" fill="#5CFFE4" stroke="#5CFFE4" stroke-width="0.4"/>
<path d="M49.9615 49.1119L49.9618 49.1118C50.4319 48.9209 50.9142 48.7469 51.3917 48.5747C51.6359 48.4866 51.8789 48.3989 52.1183 48.3097C52.2355 48.266 52.36 48.2525 52.4701 48.2587C52.5765 48.2648 52.6907 48.2906 52.779 48.3457C52.8233 48.3733 52.8769 48.4183 52.9078 48.488C52.9427 48.5666 52.9374 48.6517 52.8999 48.725C52.8665 48.7903 52.8127 48.8377 52.7607 48.8723C52.7068 48.9081 52.6409 48.9395 52.5652 48.9677L49.9615 49.1119ZM49.9615 49.1119C49.4561 49.3178 49.1399 49.6583 48.8149 50.0083C48.756 50.0717 48.6968 50.1354 48.6362 50.1987C48.5454 50.2934 48.4518 50.3863 48.3559 50.4813C48.345 50.4921 48.3341 50.5029 48.3232 50.5138C48.2167 50.6194 48.1081 50.7279 48.0032 50.8401C47.7937 51.0646 47.5933 51.3107 47.4432 51.5992C47.1982 52.0693 47.0007 52.5853 46.8097 53.0846C46.7164 53.3285 46.6246 53.5684 46.5295 53.7971L46.5294 53.7974M49.9615 49.1119L46.5294 53.7974M46.5294 53.7974C46.4965 53.8768 46.4953 53.9759 46.5579 54.0606C46.6091 54.1299 46.6826 54.1602 46.7315 54.1745C46.8335 54.2044 46.9594 54.2029 47.071 54.1888C47.1869 54.1741 47.3131 54.1425 47.4221 54.0934C47.5211 54.0488 47.6508 53.9699 47.7069 53.835L47.7069 53.835M46.5294 53.7974L47.7069 53.835M47.7069 53.835L48.5325 51.8462L48.5325 51.8461M47.7069 53.835L48.5325 51.8461M48.5325 51.8461C48.6933 51.4583 48.9457 51.2051 49.2735 50.8764M48.5325 51.8461L49.2735 50.8764M49.2735 50.8764C49.3551 50.7946 49.4413 50.7081 49.532 50.6137L49.2735 50.8764ZM50.5533 49.7168L52.565 48.9677L49.532 50.6136C49.6115 50.531 49.6952 50.4468 49.7804 50.3611C49.9577 50.1829 50.1416 49.998 50.3071 49.8067C50.3466 49.7915 50.3845 49.778 50.4244 49.7638C50.464 49.7497 50.5056 49.7349 50.5526 49.7171C50.5528 49.717 50.553 49.7169 50.5533 49.7168Z" fill="#5CFFE4" stroke="#5CFFE4" stroke-width="0.4"/>
<path d="M39.6259 30.7959L39.6259 30.7961C39.6106 30.9647 39.4995 31.0832 39.3909 31.1549C39.2802 31.2279 39.1449 31.2721 39.0165 31.2877C38.8912 31.3029 38.7453 31.2939 38.6236 31.2303C38.5603 31.1972 38.4996 31.1468 38.4579 31.0743C38.4158 31.0009 38.4008 30.9179 38.4083 30.8334L38.4083 30.8333C38.4675 30.1744 38.5054 29.5053 38.5436 28.8306C38.5551 28.6271 38.5666 28.4232 38.5788 28.2188C38.6312 27.3392 38.6949 26.4554 38.8179 25.5918L38.818 25.5918C38.8785 25.1674 38.9845 24.7518 39.0884 24.348L39.0953 24.3211C39.1976 23.9233 39.297 23.5368 39.3571 23.1461L39.3571 23.1459C39.4303 22.6718 39.4518 22.1997 39.4739 21.7158C39.4865 21.4404 39.4992 21.1611 39.5218 20.8755L39.5218 20.8755C39.5739 20.2164 39.6874 19.5763 39.7988 18.9481C39.8143 18.8607 39.8298 18.7735 39.845 18.6865C39.9705 17.9706 40.0825 17.2653 40.096 16.5352C40.096 16.5352 40.096 16.5352 40.096 16.5351L40.296 16.5388C40.3494 13.623 40.9516 10.6636 41.5339 7.80196C41.5575 7.68636 41.5809 7.57092 41.6044 7.45564L39.6259 30.7959ZM39.6259 30.7959C39.692 30.0593 39.7447 29.3207 39.7972 28.5842M39.6259 30.7959L39.7972 28.5842M39.7972 28.5842C39.8026 28.509 39.8079 28.4338 39.8133 28.3586M39.7972 28.5842L39.8133 28.3586M39.8133 28.3586C39.8713 27.5467 39.9309 26.7375 40.0098 25.932L39.8133 28.3586ZM41.6684 7.07828C41.5578 7.14515 41.441 7.25503 41.4084 7.41582L40.0098 25.9319C40.074 25.2778 40.2015 24.6393 40.3314 23.9892C40.3416 23.9379 40.3519 23.8865 40.3622 23.8351C40.5015 23.1352 40.6376 22.4212 40.6851 21.6813C40.7294 20.9929 40.8563 20.3146 40.9855 19.624C40.9915 19.5919 40.9975 19.5597 41.0035 19.5275C41.1379 18.808 41.2706 18.075 41.299 17.3289L41.299 17.3283C41.3551 15.7402 41.499 14.1565 41.7298 12.5843L41.7298 12.5843C41.9851 10.8453 42.2697 9.14299 42.6192 7.42225L42.6192 7.42223C42.6357 7.34072 42.6305 7.25585 42.5929 7.17761C42.5556 7.10013 42.4952 7.04709 42.4327 7.01298C42.3141 6.94835 42.1688 6.93982 42.0457 6.95358C41.918 6.96787 41.7822 7.00955 41.6684 7.07828Z" fill="#5CFFE4" stroke="#5CFFE4" stroke-width="0.4"/>
<path d="M29.9995 32.5685C30.2271 32.8237 30.9995 32.5089 30.7455 32.2229M29.9995 32.5685C29.5564 32.072 29.0969 31.5829 28.6366 31.0929C27.8963 30.3049 27.1539 29.5147 26.4747 28.6885C25.841 27.918 25.2262 27.1235 24.6103 26.3276C23.3487 24.6974 22.0825 23.0611 20.6399 21.6121C18.5786 19.5415 16.7909 17.1494 15.0399 14.8064C14.9673 14.7093 14.8948 14.6122 14.8223 14.5153L30.7455 32.2229M29.9995 32.5685L29.8502 32.7016M29.9995 32.5685L29.8502 32.7016M30.7455 32.2229C30.2465 31.6625 29.7383 31.109 29.23 30.5555C28.6384 29.911 28.0466 29.2665 27.4691 28.6109L30.7455 32.2229ZM29.8502 32.7016C29.4148 32.2137 28.9583 31.7277 28.499 31.2387M29.8502 32.7016L28.499 31.2387M28.499 31.2387C27.7544 30.4459 27.0023 29.6452 26.3202 28.8155L28.499 31.2387ZM14.6622 14.6351C14.7356 14.7333 14.809 14.8316 14.8826 14.93C16.6312 17.2699 18.4266 19.6723 20.4982 21.7532C21.9321 23.1936 23.1848 24.8125 24.4418 26.4369C25.0595 27.2353 25.6783 28.035 26.3202 28.8155L14.6622 14.6351ZM14.5784 14.4035C14.5804 14.4888 14.6115 14.5674 14.6621 14.635L29.8503 32.7017C29.9591 32.8237 30.1151 32.8599 30.244 32.8623C30.3767 32.8648 30.5151 32.8333 30.6329 32.782C30.7463 32.7327 30.8682 32.653 30.9387 32.5379C30.9759 32.477 31.0017 32.4008 30.9951 32.3149C30.9884 32.2282 30.9502 32.1522 30.895 32.0901L30.8949 32.0899C30.3887 31.5215 29.8807 30.9683 29.3739 30.4163C28.7859 29.7761 28.1995 29.1375 27.6192 28.4788C27.1849 27.9852 26.7917 27.463 26.3931 26.9336C26.3612 26.8912 26.3292 26.8488 26.2972 26.8063C25.8671 26.2358 25.4273 25.66 24.9281 25.122L24.9281 25.122C24.4576 24.6154 24.0367 24.0669 23.6098 23.5105C23.5899 23.4845 23.57 23.4585 23.5501 23.4326C23.1047 22.8523 22.6503 22.2658 22.1337 21.7311L22.1337 21.7311C21.0105 20.5688 19.987 19.4242 18.9632 18.1711C17.8537 16.8127 16.7771 15.4526 15.7285 14.0495L15.7284 14.0494C15.6278 13.9151 15.472 13.8709 15.3426 13.8644C15.2101 13.8577 15.0709 13.8874 14.952 13.9381C14.8364 13.9874 14.7142 14.0678 14.6414 14.1838C14.6033 14.2445 14.5764 14.3192 14.5784 14.4035Z" fill="#5CFFE4" stroke="#5CFFE4" stroke-width="0.4"/>
<path d="M33.706 28.476C33.7338 28.5753 33.8076 28.6311 33.8694 28.6588C33.9287 28.6854 33.9925 28.6944 34.0467 28.6969C34.1569 28.702 34.2833 28.6822 34.3969 28.6517C34.5104 28.6212 34.6295 28.575 34.7219 28.5155C34.7672 28.4863 34.8181 28.4464 34.8558 28.3932C34.8954 28.3375 34.9305 28.251 34.9023 28.1508C34.2344 25.7693 33.5692 23.3873 32.9069 21.0048C32.8792 20.9053 32.8054 20.8494 32.7437 20.8217C32.6845 20.795 32.6206 20.786 32.5665 20.7835C32.4565 20.7784 32.33 20.798 32.2165 20.8285C32.1029 20.8589 31.9837 20.905 31.8912 20.9645C31.8458 20.9937 31.7949 21.0337 31.7571 21.0869C31.7175 21.1426 31.6824 21.229 31.7103 21.3291C32.3716 23.7124 33.0369 26.0947 33.706 28.476ZM33.706 28.476C33.706 28.4759 33.706 28.4759 33.706 28.4759L33.8985 28.422L33.706 28.4761C33.706 28.476 33.706 28.476 33.706 28.476Z" fill="#5CFFE4" stroke="#5CFFE4" stroke-width="0.4"/>
<path d="M30.6747 18.0539L30.6747 18.0538L29.9447 15.4414L29.9447 15.4413C29.9168 15.3412 29.9518 15.2547 29.9914 15.1989C30.0292 15.1457 30.08 15.1058 30.1254 15.0765C30.2179 15.017 30.3371 14.9708 30.4506 14.9403C30.5641 14.9098 30.6905 14.8901 30.8006 14.8952C30.8548 14.8977 30.9186 14.9067 30.9779 14.9333C31.0395 14.9609 31.1134 15.0168 31.1412 15.1162L30.6747 18.0539ZM30.6747 18.0539C30.7025 18.1533 30.7763 18.2091 30.8381 18.2369C30.8974 18.2635 30.9613 18.2725 31.0154 18.275C31.1256 18.2802 31.2521 18.2604 31.3656 18.2299C31.4792 18.1994 31.5984 18.1533 31.6908 18.0938C31.7362 18.0646 31.787 18.0246 31.8248 17.9715C31.8644 17.9158 31.8996 17.8293 31.8716 17.729L31.8716 17.729L31.1412 15.1164L30.6747 18.0539Z" fill="#5CFFE4" stroke="#5CFFE4" stroke-width="0.4"/>
<path d="M15.5794 44.9678C15.4899 44.9976 15.4139 45.0302 15.3527 45.0664C15.2944 45.1009 15.2328 45.1483 15.1939 45.2156C15.1483 45.2941 15.1409 45.3892 15.1845 45.4754C15.2212 45.5479 15.2828 45.5919 15.3299 45.6176C15.4264 45.6704 15.553 45.6958 15.6731 45.7018C15.7969 45.708 15.9364 45.6947 16.066 45.6516L16.0661 45.6516C18.5874 44.8099 21.1076 43.9641 23.6268 43.1142L23.6268 43.1142C23.716 43.0841 23.7919 43.0513 23.853 43.0148C23.9112 42.9801 23.9725 42.9324 24.0112 42.865C24.0563 42.7864 24.0634 42.6916 24.0199 42.6057C23.9832 42.5332 23.9217 42.4893 23.8745 42.4635C23.7779 42.4107 23.6514 42.3854 23.5313 42.3796C23.4077 42.3736 23.2683 42.3872 23.139 42.4308L23.139 42.4308C20.6202 43.2795 18.1003 44.1252 15.5794 44.9678ZM15.5794 44.9678L15.6428 45.1574L15.5794 44.9678C15.5794 44.9678 15.5794 44.9678 15.5794 44.9678Z" fill="#5CFFE4" stroke="#5CFFE4" stroke-width="0.4"/>
<path d="M24.7869 32.8654L24.7871 32.8655C24.8405 32.8881 24.9328 32.9424 24.9562 33.0575C24.9787 33.1685 24.9193 33.2516 24.8877 33.2877C24.8209 33.3642 24.7121 33.4231 24.6208 33.4635C24.5214 33.5075 24.4068 33.545 24.3011 33.5665C24.2483 33.5773 24.1933 33.5849 24.141 33.5862C24.0925 33.5873 24.0281 33.5836 23.9672 33.5578L23.9671 33.5578C21.3739 32.4617 18.7821 31.3617 16.1918 30.2576L24.7869 32.8654ZM24.7869 32.8654C22.1943 31.7681 19.6028 30.6682 17.0125 29.5656L17.0125 29.5655M24.7869 32.8654L17.0125 29.5655M17.0125 29.5655C16.9515 29.5396 16.887 29.5358 16.8385 29.5369M17.0125 29.5655L16.8385 29.5369M16.8385 29.5369C16.7861 29.538 16.7311 29.5456 16.6782 29.5563M16.8385 29.5369L16.6782 29.5563M16.6782 29.5563C16.5724 29.5777 16.4577 29.6152 16.3581 29.6592M16.6782 29.5563L16.3581 29.6592M16.3581 29.6592C16.2668 29.6996 16.1578 29.7585 16.0908 29.8352M16.3581 29.6592L16.0908 29.8352M16.0908 29.8352C16.0591 29.8717 15.9998 29.955 16.0228 30.066M16.0908 29.8352L16.0228 30.066M16.0228 30.066C16.0465 30.1807 16.1383 30.2348 16.1917 30.2576L16.0228 30.066Z" fill="#5CFFE4" stroke="#5CFFE4" stroke-width="0.4"/>
<path d="M51.9619 21.8055L51.9623 21.8051L54.2882 19.3175C54.2882 19.3175 54.2883 19.3175 54.2883 19.3175C54.341 19.2611 54.3874 19.1951 54.4091 19.1191C54.4329 19.0357 54.4241 18.9468 54.3749 18.87C54.3304 18.8006 54.2651 18.7603 54.2106 18.7369C54.1544 18.7127 54.0934 18.6994 54.0356 18.6925C53.92 18.6787 53.7896 18.6877 53.6722 18.7155C53.5607 18.7418 53.4287 18.7927 53.3394 18.8882L53.3393 18.8883L51.0143 21.3757C51.0142 21.3757 51.0142 21.3758 51.0142 21.3758C50.9614 21.4321 50.9149 21.498 50.893 21.5738C50.8691 21.6571 50.8774 21.7461 50.9266 21.8231C50.9711 21.8928 51.0365 21.9331 51.0911 21.9565C51.1473 21.9806 51.2082 21.9939 51.2661 22.0008C51.3816 22.0144 51.512 22.0054 51.6293 21.9777C51.7406 21.9513 51.8726 21.9006 51.9619 21.8055Z" fill="#5CFFE4" stroke="#5CFFE4" stroke-width="0.4"/>
<path d="M45.9804 34.998L45.9804 34.998C45.8269 35.02 45.6684 35.0133 45.5541 34.9255C45.4131 34.8174 45.4142 34.6542 45.4556 34.5422C45.4953 34.4347 45.5776 34.3401 45.671 34.2702C45.7669 34.1986 45.8892 34.1417 46.0262 34.1221C46.0263 34.1221 46.0265 34.1221 46.0267 34.122L46.0549 34.32C48.9925 33.8848 51.9701 33.6448 54.9349 33.4448L45.9804 34.998ZM45.9804 34.998L45.9813 34.9979M45.9804 34.998L45.9813 34.9979M45.9813 34.9979C48.912 34.5655 51.8832 34.3251 54.8456 34.1244L54.8321 33.9248L45.9813 34.9979Z" fill="#5CFFE4" stroke="#5CFFE4" stroke-width="0.4"/>
<path d="M42.3809 30.3049L42.3809 30.305C42.2669 30.4268 42.1934 30.5904 42.2658 30.7582C42.3285 30.9037 42.4722 30.9749 42.5848 31.0072C42.7067 31.0421 42.8476 31.0486 42.9795 31.0253C43.1097 31.0024 43.2524 30.9464 43.3565 30.8351C43.9527 30.1989 44.5606 29.5701 45.1695 28.9403C46.1449 27.9314 47.1227 26.92 48.0586 25.8715C48.1709 25.7458 48.2386 25.5815 48.1663 25.416C48.103 25.2709 47.9605 25.199 47.8465 25.1665C47.7242 25.1316 47.5831 25.1259 47.4513 25.1506C47.3208 25.1751 47.1787 25.2337 47.0763 25.3483C46.1548 26.3794 45.201 27.3661 44.2434 28.3568C43.6216 29.0001 42.9982 29.645 42.3809 30.3049Z" fill="#5CFFE4" stroke="#5CFFE4" stroke-width="0.4"/>
<path d="M10.7456 39.3081C10.8869 39.3009 11.0145 39.2541 11.1155 39.1873C11.2137 39.1224 11.3002 39.0294 11.3407 38.9182C11.3845 38.7983 11.3738 38.6446 11.2473 38.5363C11.1401 38.4445 10.9866 38.4203 10.8278 38.4282L10.8275 38.4283C9.26662 38.5081 8.14691 38.5428 6.58042 38.5596L6.58032 38.5596C6.45549 38.561 6.32929 38.6073 6.22745 38.6618C6.12377 38.7173 6.02312 38.7931 5.95132 38.8767C5.91572 38.9181 5.88003 38.9697 5.85875 39.0292C5.83716 39.0896 5.82521 39.175 5.86677 39.2611C5.90831 39.3472 5.98385 39.3936 6.05192 39.4173C6.11906 39.4406 6.19588 39.4484 6.27621 39.4475L6.2763 39.4475C7.77062 39.4315 9.25291 39.385 10.7456 39.3081ZM10.7456 39.3081L10.7353 39.1084M10.7456 39.3081C10.7456 39.3081 10.7456 39.3081 10.7456 39.3081L10.7353 39.1084M10.7353 39.1084C9.24535 39.1852 7.76575 39.2316 6.27416 39.2476C5.72856 39.2532 6.26056 38.7632 6.58256 38.7596C8.15175 38.7428 9.27415 38.708 10.8377 38.628C11.4001 38.6 11.1497 39.0872 10.7353 39.1084Z" fill="#5CFFE4" stroke="#5CFFE4" stroke-width="0.4"/>
<path d="M26.6922 39.0951L26.6922 39.0951C25.5399 39.1353 24.3973 39.1495 23.2582 39.1637C21.4902 39.1856 19.7308 39.2075 17.9567 39.3264L26.6922 39.0951ZM26.6922 39.0951C27.0159 39.0838 27.2543 38.8606 27.2981 38.6072C27.3207 38.4766 27.2905 38.3307 27.18 38.2215C27.072 38.1147 26.9164 38.0718 26.7439 38.0778L26.7439 38.0778M26.6922 39.0951L26.7439 38.0778M26.7439 38.0778C25.6125 38.1173 24.4769 38.1315 23.3394 38.1458C21.5601 38.168 19.7759 38.1904 17.9955 38.3097L17.9953 38.3097M26.7439 38.0778L17.9953 38.3097M17.9953 38.3097C17.675 38.3314 17.441 38.5591 17.3972 38.8093M17.9953 38.3097L17.3972 38.8093M17.3972 38.8093C17.3744 38.939 17.4031 39.0864 17.5167 39.195M17.3972 38.8093L17.5167 39.195M17.5167 39.195C17.6273 39.3008 17.7851 39.3379 17.9566 39.3264L17.5167 39.195Z" fill="#5CFFE4" stroke="#5CFFE4" stroke-width="0.4"/>
</svg>
