<svg xmlns="http://www.w3.org/2000/svg" width="85" height="85" viewBox="0 0 85 85">
    <g fill="none" fill-rule="evenodd">
        <g>
            <g>
                <g>
                    <path d="M0 0H85V85H0z" transform="translate(-83 -2511) translate(83 1964) translate(0 547)"/>
                    <path fill="#5CFFE4" d="M31.942 9.986L22.141 21.386 10.878 31.279 1 42.471 12.45 52.069 23.037 62.666 32.915 73.973 44.234 84.955 44.865 63.779 32.449 53.863 21.232 42.471 32.702 31.627 43.868 21.433 44.021 0.247z" transform="translate(-83 -2511) translate(83 1964) translate(0 547) rotate(180 22.932 42.601)"/>
                    <path fill="#5CFFE4" d="M83.606 0L73.159 11.894 60.821 20.703 50.032 31.081 39.752 42.471 52.078 51.783 61.524 63.546 71.688 74.559 82.563 83.831 84.511 63.676 71.751 53.91 61.085 42.471 71.497 31.065 82.133 21.062z" transform="translate(-83 -2511) translate(83 1964) translate(0 547) rotate(180 62.132 41.915)"/>
                </g>
            </g>
        </g>
    </g>
</svg>
